<?xml version="1.0" encoding="UTF-8" standalone="no"?>
<svg
   xmlns:dc="http://purl.org/dc/elements/1.1/"
   xmlns:cc="http://creativecommons.org/ns#"
   xmlns:rdf="http://www.w3.org/1999/02/22-rdf-syntax-ns#"
   xmlns:svg="http://www.w3.org/2000/svg"
   xmlns="http://www.w3.org/2000/svg"
   xmlns:xlink="http://www.w3.org/1999/xlink"
   xmlns:sodipodi="http://sodipodi.sourceforge.net/DTD/sodipodi-0.dtd"
   xmlns:inkscape="http://www.inkscape.org/namespaces/inkscape"
   width="100mm"
   height="100mm"
   viewBox="0 0 100 100"
   version="1.1"
   id="svg8"
   inkscape:version="1.0.1 (3bc2e813f5, 2020-09-07)"
   sodipodi:docname="BornFish.svg"
   inkscape:export-filename="C:\Users\hiroa\Desktop\BornFish.png"
   inkscape:export-xdpi="6.4000001"
   inkscape:export-ydpi="6.4000001">
  <defs
     id="defs2">
    <linearGradient
       inkscape:collect="always"
       id="linearGradient974">
      <stop
         style="stop-color:#4b4b4b;stop-opacity:1;"
         offset="0"
         id="stop970" />
      <stop
         style="stop-color:#4b4b4b;stop-opacity:0;"
         offset="1"
         id="stop972" />
    </linearGradient>
    <rect
       x="23.623512"
       y="86.178572"
       width="23.035423"
       height="17.804464"
       id="rect904" />
    <rect
       x="23.623512"
       y="86.178574"
       width="15.686012"
       height="13.229167"
       id="rect904-4" />
    <rect
       x="23.623512"
       y="86.178574"
       width="15.686012"
       height="13.229167"
       id="rect917" />
    <rect
       x="23.623512"
       y="86.178574"
       width="15.686012"
       height="13.229167"
       id="rect904-4-7" />
    <rect
       x="23.623512"
       y="86.178574"
       width="15.686012"
       height="13.229167"
       id="rect946" />
    <rect
       x="23.623512"
       y="86.178574"
       width="15.686012"
       height="13.229167"
       id="rect904-8" />
    <rect
       x="23.623512"
       y="86.178574"
       width="15.686012"
       height="13.229167"
       id="rect976" />
    <rect
       x="23.623512"
       y="86.178574"
       width="24.207069"
       height="17.041914"
       id="rect904-9" />
    <rect
       x="23.623512"
       y="86.178574"
       width="15.686012"
       height="13.229167"
       id="rect1005" />
    <rect
       x="23.623512"
       y="86.178574"
       width="15.686012"
       height="13.229167"
       id="rect904-9-7" />
    <rect
       x="23.623512"
       y="86.178574"
       width="15.686012"
       height="13.229167"
       id="rect1034" />
    <rect
       x="23.623512"
       y="86.178574"
       width="17.496736"
       height="14.209588"
       id="rect904-94" />
    <rect
       x="23.623512"
       y="86.178574"
       width="15.686012"
       height="13.229167"
       id="rect1064" />
    <rect
       x="23.623512"
       y="86.178574"
       width="15.686012"
       height="13.229167"
       id="rect904-94-2" />
    <rect
       x="23.623512"
       y="86.178574"
       width="15.686012"
       height="13.229167"
       id="rect1093" />
    <rect
       x="23.623512"
       y="86.178574"
       width="15.686012"
       height="13.229167"
       id="rect904-94-2-3" />
    <rect
       x="23.623512"
       y="86.178574"
       width="15.686012"
       height="13.229167"
       id="rect1122" />
    <rect
       x="23.623512"
       y="86.178574"
       width="15.686012"
       height="13.229167"
       id="rect904-94-2-6" />
    <rect
       x="23.623512"
       y="86.178574"
       width="15.686012"
       height="13.229167"
       id="rect1102" />
    <radialGradient
       inkscape:collect="always"
       xlink:href="#linearGradient974"
       id="radialGradient978"
       cx="255.9995"
       cy="256.00085"
       fx="255.9995"
       fy="256.00085"
       r="255.9995"
       gradientTransform="matrix(1,0,0,0.81940108,0,46.233476)"
       gradientUnits="userSpaceOnUse" />
  </defs>
  <sodipodi:namedview
     id="base"
     pagecolor="#ffffff"
     bordercolor="#666666"
     borderopacity="1.0"
     inkscape:pageopacity="0.0"
     inkscape:pageshadow="2"
     inkscape:zoom="0.69394897"
     inkscape:cx="120.69526"
     inkscape:cy="278.48715"
     inkscape:document-units="mm"
     inkscape:current-layer="g962"
     inkscape:document-rotation="0"
     showgrid="false"
     inkscape:window-width="1662"
     inkscape:window-height="1041"
     inkscape:window-x="513"
     inkscape:window-y="226"
     inkscape:window-maximized="0" />
  <metadata
     id="metadata5">
    <rdf:RDF>
      <cc:Work
         rdf:about="">
        <dc:format>image/svg+xml</dc:format>
        <dc:type
           rdf:resource="http://purl.org/dc/dcmitype/StillImage" />
        <dc:title />
      </cc:Work>
    </rdf:RDF>
  </metadata>
  <g
     inkscape:groupmode="layer"
     id="layer2"
     inkscape:label="レイヤー 2"
     style="display:inline"
     sodipodi:insensitive="true" />
  <g
     inkscape:label="レイヤー 1"
     inkscape:groupmode="layer"
     id="layer1"
     style="display:inline">
    <text
       xml:space="preserve"
       id="text902-5"
       style="font-style:normal;font-variant:normal;font-weight:normal;font-stretch:normal;font-size:12.8687px;line-height:1.25;font-family:sans-serif;-inkscape-font-specification:'sans-serif, Normal';font-variant-ligatures:normal;font-variant-caps:normal;font-variant-numeric:normal;font-variant-east-asian:normal;white-space:pre;shape-inside:url(#rect904-9);fill:#000000;fill-opacity:1;stroke:none;"
       transform="matrix(1.7743161,0,0,1.7348602,-42.572745,-91.778884)" />
    <g
       style="opacity:1"
       id="g953"
       transform="matrix(0.26458333,0,0,0.26458333,69.202537,112.93737)">
      <g
         id="g937" />
    </g>
    <g
       id="g954"
       transform="translate(-14.107065,109.42507)">
      <g
         id="g962"
         transform="matrix(0.89807248,0.74951876,-0.69879759,0.96325771,-33.618031,-64.170915)">
        <path
           style="display:inline;fill:#fefefe;fill-opacity:1;stroke:#ffffff;stroke-width:11.6152;stroke-linecap:round;stroke-linejoin:round;stroke-opacity:1"
           d="m 221.95178,-90.805249 c -28.29562,-5.965975 -59.16281,-21.788031 -85.86649,-44.013861 -10.30049,-8.57324 -30.59731,-28.47734 -34.20337,-33.54159 l -1.958852,-2.75096 14.893442,-9.74698 28.05311,-12.90706 -34.38589,-11.12257 -8.713416,-11.32505 4.107536,-4.90599 c 7.8748,-9.40559 29.55637,-29.48636 41.73825,-38.65664 20.76928,-15.63468 39.8742,-25.78666 61.28696,-32.56668 11.67673,-3.69726 29.31987,-6.98686 30.60109,-5.70565 0.50038,0.50038 2.51231,6.75696 4.47097,13.90353 5.85856,21.37617 10.76856,55.48322 10.77769,74.86663 l 0.003,7.38747 h 21.90765 21.90766 v -29.98656 c 0,-25.9019 0.21811,-30.20467 1.60122,-31.58778 1.90701,-1.90701 4.65431,-2.07084 6.34667,-0.37848 0.89632,0.89632 1.22276,9.32916 1.22276,31.58779 v 30.36503 l 23.43609,0 23.4361,0 v -34.57188 c 0,-30.07037 0.20849,-34.78038 1.60123,-36.17311 2.09933,-2.09934 3.8151,-2.02288 5.88305,0.26219 1.4989,1.65626 1.68637,5.67751 1.68637,36.17311 v 34.30969 l 23.4361,0 23.43609,0 v -30.36503 c 0,-22.25863 0.32644,-30.69147 1.22276,-31.58779 1.89537,-1.89537 4.61648,-1.44971 6.36167,1.0419 1.34644,1.92231 1.58622,6.69721 1.58622,31.58778 l 0,29.32314 22.92662,0 22.92662,0 0,-25.03153 c 0,-15.30626 0.40981,-25.79727 1.0548,-27.00246 1.17907,-2.20311 5.02114,-2.62013 6.89309,-0.74818 0.88636,0.88636 1.22275,8.28987 1.22275,26.91101 v 25.68826 l 16.04863,0.38557 c 14.99511,0.36027 16.20479,0.24921 18.42745,-1.69173 1.30835,-1.14252 7.13054,-8.26749 12.9382,-15.83327 13.54606,-17.64678 21.05091,-25.86383 30.74378,-33.66135 7.91844,-6.37006 22.06846,-14.2011 23.34805,-12.92151 0.3854,0.38541 -0.68603,16.8705 -2.38096,36.63354 l -3.0817,35.93282 2.8821,32.60674 c 1.58516,17.93371 2.90199,34.32046 2.92632,36.415 l 0.0442,3.80825 -5.52784,-2.44467 c -14.72336,-6.51137 -30.72851,-21.31709 -49.65113,-45.93027 -6.46286,-8.40642 -12.39623,-15.74487 -13.18525,-16.30765 -0.86445,-0.61658 -7.81266,-0.89179 -17.48323,-0.69249 l -16.04863,0.33075 0,25.83898 c 0,22.13138 -0.22975,26.06876 -1.60122,27.44022 -2.09749,2.09749 -3.07444,2.02036 -5.5315,-0.4367 -1.92923,-1.92923 -2.03792,-3.39653 -2.03792,-27.51194 l 0,-25.47402 h -22.92662 -22.92662 v 28.97405 c 0,16.35979 -0.43264,30.11197 -0.99374,31.58778 -1.08,2.84061 -4.76705,3.57809 -6.95415,1.39099 -0.89632,-0.89632 -1.22276,-9.32916 -1.22276,-31.58779 l 0,-30.36503 H 385.2212 l -23.4361,0 0,34.20217 c 0,21.62782 -0.3878,34.92679 -1.05481,36.17311 -1.17907,2.20312 -5.02113,2.62014 -6.89309,0.74818 -0.9035,-0.9035 -1.22275,-10.34811 -1.22275,-36.1731 l 0,-34.95036 -23.4361,0 h -23.43609 v 30.36503 c 0,22.25863 -0.32644,30.69147 -1.22276,31.58779 -1.87195,1.87195 -5.71401,1.45493 -6.89308,-0.74819 -0.65771,-1.22893 -1.05481,-13.12074 -1.05481,-31.58778 l 0,-29.61685 h -21.74916 -21.74916 l -0.63936,14.01071 c -1.2347,27.05612 -7.55567,63.59391 -13.83786,79.988422 -1.30789,3.413193 -3.64733,3.523231 -16.64429,0.782899 z M 191.60021,-202.90021 c 5.68594,-2.90075 9.3942,-8.20144 9.97641,-14.26056 0.66569,-6.92804 -0.41225,-11.63972 -3.50345,-15.31339 -10.89764,-12.95112 -32.31367,-7.23337 -34.57019,9.22971 -1.21066,8.83272 3.47837,17.52543 11.30282,20.95365 4.58,2.00669 12.20908,1.72986 16.79441,-0.60941 z"
           id="path941"
           transform="scale(0.26458333)"
           sodipodi:nodetypes="ssscccccsssssccccsssscccsssscccsssscccsssscsssssscsscsssscsssscccsssscccsssscccsssscccssssscsss" />
        <g
           style="opacity:1;fill:#000000;fill-opacity:1;stroke:#000000;stroke-width:1.51181;stroke-miterlimit:4;stroke-dasharray:none;stroke-opacity:1"
           id="g939"
           transform="matrix(0.26458333,0,0,0.26458333,21.23468,-118.95734)">
          <g
             id="g925"
             style="fill:#000000;fill-opacity:1;stroke:#000000;stroke-width:1.51181;stroke-miterlimit:4;stroke-dasharray:none;stroke-opacity:1">
	<path
   class="st0"
   d="m 102.46916,203.39138 c -14.340686,0 -25.948747,11.60946 -25.948747,25.94875 0,14.33928 11.608061,25.94734 25.948747,25.94734 14.33928,0 25.94735,-11.60806 25.94735,-25.94734 0,-14.34069 -11.60807,-25.94875 -25.94735,-25.94875 z m 0,39.41069 c -7.437879,-0.0126 -13.450768,-6.02407 -13.461944,-13.46194 0.01257,-7.43788 6.024065,-13.45077 13.461944,-13.46334 7.43787,0.0126 13.44797,6.02406 13.46194,13.46334 -0.014,7.43787 -6.02407,13.44797 -13.46194,13.46194 z"
   style="fill:#000000;fill-opacity:1;stroke:#000000;stroke-width:2.11207;stroke-miterlimit:4;stroke-dasharray:none;stroke-opacity:1"
   id="path919" />

	<path
   class="st0"
   d="m 425.81,223.474 0.104,-0.13 c 0.035,-0.044 0.061,-0.088 0.097,-0.131 z"
   style="fill:#000000;fill-opacity:1;stroke:#000000;stroke-width:1.51181;stroke-miterlimit:4;stroke-dasharray:none;stroke-opacity:1"
   id="path921" />

	<path
   class="st0"
   d="m 504.023,256.012 7.969,-92.466 -12.656,2.305 c -24.02,4.477 -42.253,20.502 -55.956,35.768 -6.869,7.698 -12.656,15.344 -17.352,21.576 l -0.114,0.148 c -2.749,3.683 -5.202,6.886 -7.078,9.156 l -0.044,0 h -10.648 v -34.581 c -0.008,-10.98 -8.894,-19.882 -19.883,-19.882 -10.989,0 -19.882,8.894 -19.882,19.882 v 34.581 l -15.946,0 V 188.98 c 0,-10.989 -8.894,-19.882 -19.883,-19.882 -10.989,0 -19.882,8.894 -19.882,19.882 l 0,43.519 -15.954,0 0,-52.456 c 0,-10.989 -8.895,-19.882 -19.884,-19.882 -10.988,0 -19.883,8.894 -19.883,19.882 v 52.456 H 241.002 V 188.98 c -0.009,-10.98 -8.895,-19.882 -19.884,-19.882 -10.988,0 -19.883,8.894 -19.883,19.882 l 0,43.519 H 187.55 c -3.221,-57.85 -17.194,-90.624 -17.578,-91.488 l -1.256,-2.89 -1.502,-3.447 -6.878,0.445 c -46.129,2.915 -84.907,26.228 -112.192,48.345 -13.65,11.085 -24.482,21.96 -31.945,30.103 -3.727,4.076 -6.616,7.463 -8.588,9.872 -0.986,1.196 -1.745,2.147 -2.269,2.811 l -0.602,0.768 -0.131,0.174 -0.061,0.079 v 0 L 9.3891039,232.41901 36.940081,256.03934 4.618,284.834 l -0.123,-0.158 0.062,0.087 0.052,0.071 0.009,0 c 0.742,0.968 16.706,21.95 43.527,43.719 27.284,22.108 66.055,45.43 112.192,48.354 l 3.134,0.192 3.744,0.227 2.758,-6.302 c 0.384,-0.881 14.358,-33.646 17.578,-91.497 h 13.685 v 43.518 c 0,10.981 8.895,19.883 19.883,19.883 10.989,0 19.874,-8.902 19.884,-19.883 l 0,-43.518 h 15.945 v 52.456 c 0,10.981 8.895,19.883 19.883,19.883 10.989,0 19.884,-8.902 19.884,-19.883 l 0,-52.456 h 15.954 l 0,43.518 c 0,10.981 8.894,19.883 19.882,19.883 10.988,0 19.883,-8.902 19.883,-19.883 l 0,-43.518 h 15.946 v 34.58 c 0,10.981 8.894,19.884 19.882,19.884 10.988,0 19.875,-8.903 19.883,-19.884 v -34.58 h 10.648 0.053 c 1.903,2.295 4.381,5.542 7.174,9.278 7.078,9.383 16.523,21.89 28.523,33.009 11.993,11.076 26.796,21.052 44.794,24.343 l 5.76,1.048 6.903,1.257 z m -7.908,74.644 c -16.435,-4.835 -30.61,-16.941 -42.069,-29.789 -6.39,-7.148 -11.914,-14.445 -16.593,-20.651 -4.713,-6.231 -8.396,-11.276 -11.835,-14.436 l -1.85,-1.684 -2.41,0.699 c -0.969,0.288 -1.797,0.436 -2.566,0.436 l -24.945,0 v 48.877 c -0.009,3.082 -2.505,5.578 -5.586,5.586 -3.08,-0.008 -5.577,-2.504 -5.586,-5.586 V 265.23 h -44.54 v 57.815 c -0.009,3.082 -2.505,5.578 -5.586,5.586 -3.081,-0.008 -5.577,-2.504 -5.586,-5.586 l 0,-57.815 h -44.548 l 0,66.752 c -0.008,3.082 -2.504,5.578 -5.586,5.586 -3.081,-0.008 -5.577,-2.504 -5.586,-5.586 l 0,-66.752 h -44.54 l 0,57.815 c -0.008,3.082 -2.504,5.578 -5.586,5.586 -3.081,-0.008 -5.577,-2.504 -5.586,-5.586 V 265.23 h -41.65 l -0.14,4.32 c -1.004,30.854 -5.263,54.891 -9.261,71.169 -1.998,8.143 -3.927,14.34 -5.341,18.478 -0.419,1.222 -0.777,2.2 -1.092,3.063 -40.35,-3.448 -75.594,-24.255 -100.888,-44.802 -12.978,-10.535 -23.33,-20.93 -30.408,-28.663 -3.544,-3.866 -6.267,-7.07 -8.1,-9.295 l 8.1,9.295 35.861558,-32.95815 -34.44892,-32.01911 C 33.496638,217.25474 39.014,208.488 62.143,190.613 c 24.849,-19.228 58.147,-37.645 95.905,-40.856 3.57,9.636 14.044,41.965 15.694,92.71 l 0.14,4.33 h 41.65 V 188.98 c 0.009,-3.081 2.505,-5.586 5.586,-5.586 3.082,0 5.578,2.505 5.586,5.586 v 57.816 h 44.54 v -66.753 c 0.009,-3.081 2.505,-5.586 5.586,-5.586 3.082,0 5.578,2.505 5.586,5.586 v 66.753 l 44.548,0 0,-57.816 c 0.009,-3.081 2.505,-5.586 5.586,-5.586 3.081,0 5.577,2.505 5.586,5.586 v 57.816 l 44.54,0 v -48.878 c 0.009,-3.081 2.506,-5.586 5.586,-5.586 3.081,0 5.577,2.505 5.586,5.586 v 48.878 l 24.945,0 c 0.786,0 1.597,0.139 2.558,0.419 l 2.4,0.707 1.859,-1.685 c 3.439,-3.159 7.114,-8.205 11.835,-14.436 7.009,-9.305 15.973,-21.07 26.805,-31.09 9.339,-8.649 20.005,-15.902 31.866,-19.394 l -6.441,74.695 z"
   style="fill:#000000;fill-opacity:1;stroke:#000000;stroke-width:1.51181;stroke-miterlimit:4;stroke-dasharray:none;stroke-opacity:1"
   id="path923"
   sodipodi:nodetypes="ccccccccccssccsssccssscccssccccccccccccccccccccccccccccsscccsssccsssccssccccccccccccccccscccccccccccccccccccccccccccccccccccccsccccsccccsccccsccscccccccc" />

</g>
        </g>
      </g>
    </g>
  </g>
  <style
     type="text/css"
     id="style871">
	.st0{fill:#374149;}
</style>
  <style
     type="text/css"
     id="style901">
	.st0{fill:#374149;}
</style>
  <style
     type="text/css"
     id="style925">
	.st0{fill:#374149;}
</style>
  <style
     type="text/css"
     id="style874">
	.st0{fill:#4B4B4B;}
</style>
  <style
     type="text/css"
     id="style917">
	.st0{fill:#4B4B4B;}
</style>
</svg>
