<?xml version="1.0" encoding="UTF-8" standalone="no"?>
<svg
   xmlns:dc="http://purl.org/dc/elements/1.1/"
   xmlns:cc="http://creativecommons.org/ns#"
   xmlns:rdf="http://www.w3.org/1999/02/22-rdf-syntax-ns#"
   xmlns:svg="http://www.w3.org/2000/svg"
   xmlns="http://www.w3.org/2000/svg"
   xmlns:xlink="http://www.w3.org/1999/xlink"
   xmlns:sodipodi="http://sodipodi.sourceforge.net/DTD/sodipodi-0.dtd"
   xmlns:inkscape="http://www.inkscape.org/namespaces/inkscape"
   width="100mm"
   height="100mm"
   viewBox="0 0 100 100"
   version="1.1"
   id="svg8"
   inkscape:version="1.0.1 (3bc2e813f5, 2020-09-07)"
   sodipodi:docname="ConstructFishEgg.svg"
   inkscape:export-filename="C:\Users\hiroa\Desktop\ConstructFishEgg.png"
   inkscape:export-xdpi="6.0959997"
   inkscape:export-ydpi="6.0959997">
  <defs
     id="defs2">
    <linearGradient
       inkscape:collect="always"
       id="linearGradient974">
      <stop
         style="stop-color:#4b4b4b;stop-opacity:1;"
         offset="0"
         id="stop970" />
      <stop
         style="stop-color:#4b4b4b;stop-opacity:0;"
         offset="1"
         id="stop972" />
    </linearGradient>
    <rect
       x="23.623512"
       y="86.178572"
       width="23.035423"
       height="17.804464"
       id="rect904" />
    <rect
       x="23.623512"
       y="86.178574"
       width="15.686012"
       height="13.229167"
       id="rect904-4" />
    <rect
       x="23.623512"
       y="86.178574"
       width="15.686012"
       height="13.229167"
       id="rect917" />
    <rect
       x="23.623512"
       y="86.178574"
       width="15.686012"
       height="13.229167"
       id="rect904-4-7" />
    <rect
       x="23.623512"
       y="86.178574"
       width="15.686012"
       height="13.229167"
       id="rect946" />
    <rect
       x="23.623512"
       y="86.178574"
       width="15.686012"
       height="13.229167"
       id="rect904-8" />
    <rect
       x="23.623512"
       y="86.178574"
       width="15.686012"
       height="13.229167"
       id="rect976" />
    <rect
       x="23.623512"
       y="86.178574"
       width="24.207069"
       height="17.041914"
       id="rect904-9" />
    <rect
       x="23.623512"
       y="86.178574"
       width="15.686012"
       height="13.229167"
       id="rect1005" />
    <rect
       x="23.623512"
       y="86.178574"
       width="15.686012"
       height="13.229167"
       id="rect904-9-7" />
    <rect
       x="23.623512"
       y="86.178574"
       width="15.686012"
       height="13.229167"
       id="rect1034" />
    <rect
       x="23.623512"
       y="86.178574"
       width="17.496736"
       height="14.209588"
       id="rect904-94" />
    <rect
       x="23.623512"
       y="86.178574"
       width="15.686012"
       height="13.229167"
       id="rect1064" />
    <rect
       x="23.623512"
       y="86.178574"
       width="15.686012"
       height="13.229167"
       id="rect904-94-2" />
    <rect
       x="23.623512"
       y="86.178574"
       width="15.686012"
       height="13.229167"
       id="rect1093" />
    <rect
       x="23.623512"
       y="86.178574"
       width="15.686012"
       height="13.229167"
       id="rect904-94-2-3" />
    <rect
       x="23.623512"
       y="86.178574"
       width="15.686012"
       height="13.229167"
       id="rect1122" />
    <rect
       x="23.623512"
       y="86.178574"
       width="15.686012"
       height="13.229167"
       id="rect904-94-2-6" />
    <rect
       x="23.623512"
       y="86.178574"
       width="15.686012"
       height="13.229167"
       id="rect1102" />
    <radialGradient
       inkscape:collect="always"
       xlink:href="#linearGradient974"
       id="radialGradient978"
       cx="255.9995"
       cy="256.00085"
       fx="255.9995"
       fy="256.00085"
       r="255.9995"
       gradientTransform="matrix(1,0,0,0.81940108,0,46.233476)"
       gradientUnits="userSpaceOnUse" />
    <clipPath
       clipPathUnits="userSpaceOnUse"
       id="clipPath963">
      <circle
         style="fill:none;fill-opacity:1;stroke:#000000;stroke-width:1.14793;stroke-linecap:square;stroke-linejoin:miter;stroke-miterlimit:4;stroke-dasharray:none;stroke-opacity:1"
         id="circle965"
         cx="36.02874"
         cy="22.798021"
         r="37.579876" />
    </clipPath>
  </defs>
  <sodipodi:namedview
     id="base"
     pagecolor="#ffffff"
     bordercolor="#666666"
     borderopacity="1.0"
     inkscape:pageopacity="0.0"
     inkscape:pageshadow="2"
     inkscape:zoom="0.98139204"
     inkscape:cx="149.83365"
     inkscape:cy="123.63504"
     inkscape:document-units="mm"
     inkscape:current-layer="layer3"
     inkscape:document-rotation="0"
     showgrid="false"
     inkscape:window-width="1662"
     inkscape:window-height="1041"
     inkscape:window-x="200"
     inkscape:window-y="0"
     inkscape:window-maximized="0"
     showguides="false" />
  <metadata
     id="metadata5">
    <rdf:RDF>
      <cc:Work
         rdf:about="">
        <dc:format>image/svg+xml</dc:format>
        <dc:type
           rdf:resource="http://purl.org/dc/dcmitype/StillImage" />
        <dc:title />
      </cc:Work>
    </rdf:RDF>
  </metadata>
  <g
     inkscape:label="レイヤー 1"
     inkscape:groupmode="layer"
     id="layer1"
     style="display:inline">
    <text
       xml:space="preserve"
       id="text902-5"
       style="font-style:normal;font-variant:normal;font-weight:normal;font-stretch:normal;font-size:12.8687px;line-height:1.25;font-family:sans-serif;-inkscape-font-specification:'sans-serif, Normal';font-variant-ligatures:normal;font-variant-caps:normal;font-variant-numeric:normal;font-variant-east-asian:normal;white-space:pre;shape-inside:url(#rect904-9);fill:#000000;fill-opacity:1;stroke:none;"
       transform="matrix(1.7743161,0,0,1.7348602,-42.572745,-91.778884)" />
    <g
       style="opacity:1"
       id="g953"
       transform="matrix(0.26458333,0,0,0.26458333,69.202537,112.93737)">
      <g
         id="g937" />
    </g>
  </g>
  <g
     inkscape:groupmode="layer"
     id="layer3"
     inkscape:label="レイヤー 2"
     style="display:inline">
    <g
       id="g931"
       transform="translate(-102.44801,-47.180007)"
       style="stroke:#ffd700;stroke-opacity:1;fill:#ffd700;fill-opacity:1">
      <g
         style="opacity:1;fill:#ffd700;fill-opacity:1;stroke:#ffd700;stroke-opacity:1"
         id="g972"
         transform="matrix(0.18912532,0,0,0.18912532,104.08358,48.580966)">
        <g
           id="g951"
           style="fill:#ffd700;fill-opacity:1;stroke:#ffd700;stroke-opacity:1">
	<path
   class="st0"
   d="m 256.008,137.877 c -70.103,0 -126.932,106.185 -126.932,200.737 0,94.562 56.828,141.694 126.932,141.694 70.104,0 126.932,-47.133 126.932,-141.694 0,-94.553 -56.827,-200.737 -126.932,-200.737 z m -54.371,131.212 c -8.796,17.461 -14.192,39.247 -14.157,59.216 0,7.334 -5.95,13.284 -13.284,13.284 -7.343,0 -13.284,-5.95 -13.284,-13.284 0.034,-24.605 6.312,-49.78 16.976,-71.133 3.295,-6.555 11.278,-9.201 17.833,-5.915 6.556,3.286 9.211,11.268 5.916,17.832 z m 29.248,-50.929 c -2.949,2.767 -5.838,6.339 -8.493,10.576 -3.9,6.21 -12.099,8.086 -18.308,4.186 -6.218,-3.9 -8.095,-12.099 -4.195,-18.317 3.676,-5.847 7.896,-11.182 12.774,-15.783 5.336,-5.034 13.743,-4.783 18.776,0.554 5.033,5.344 4.783,13.75 -0.554,18.784 z"
   style="fill:#ffd700;fill-opacity:1;stroke:#ffd700;stroke-opacity:1"
   id="path931" />

	<rect
   x="244.056"
   y="31.691999"
   class="st0"
   width="23.903999"
   height="57.382"
   style="fill:#ffd700;fill-opacity:1;stroke-width:20.56308484;stroke-miterlimit:4;stroke-dasharray:none;stroke:#ffd700;stroke-opacity:1"
   id="rect933" />

	<polygon
   class="st0"
   points="146.348,121.669 167.052,109.717 138.366,60.015 117.652,71.967 "
   style="fill:#ffd700;fill-opacity:1;stroke-width:20.56308484;stroke-miterlimit:4;stroke-dasharray:none;stroke:#ffd700;stroke-opacity:1"
   id="polygon935" />

	<polygon
   class="st0"
   points="78.026,198.744 89.978,178.04 40.285,149.344 28.333,170.04 "
   style="fill:#ffd700;fill-opacity:1;stroke-width:20.56308484;stroke-miterlimit:4;stroke-dasharray:none;stroke:#ffd700;stroke-opacity:1"
   id="polygon937" />

	<polygon
   class="st0"
   points="433.983,376.641 422.022,397.345 471.724,426.049 483.685,405.335 "
   style="fill:#ffd700;fill-opacity:1;stroke-width:20.56308484;stroke-miterlimit:4;stroke-dasharray:none;stroke:#ffd700;stroke-opacity:1"
   id="polygon939" />

	<polygon
   class="st0"
   points="57.4,299.644 57.4,275.74 0.018,275.74 0,299.644 "
   style="fill:#ffd700;fill-opacity:1;stroke-width:20.56308484;stroke-miterlimit:4;stroke-dasharray:none;stroke:#ffd700;stroke-opacity:1"
   id="polygon941" />

	<polygon
   class="st0"
   points="512,275.74 454.609,275.74 454.609,299.644 512,299.653 "
   style="fill:#ffd700;fill-opacity:1;stroke-width:20.56308484;stroke-miterlimit:4;stroke-dasharray:none;stroke:#ffd700;stroke-opacity:1"
   id="polygon943" />

	<polygon
   class="st0"
   points="78.026,376.641 28.333,405.345 40.285,426.04 89.987,397.353 "
   style="fill:#ffd700;fill-opacity:1;stroke-width:20.56308484;stroke-miterlimit:4;stroke-dasharray:none;stroke:#ffd700;stroke-opacity:1"
   id="polygon945" />

	<polygon
   class="st0"
   points="433.974,198.752 483.685,170.057 471.716,149.344 422.031,178.04 "
   style="fill:#ffd700;fill-opacity:1;stroke-width:20.56308484;stroke-miterlimit:4;stroke-dasharray:none;stroke:#ffd700;stroke-opacity:1"
   id="polygon947" />

	<polygon
   class="st0"
   points="373.643,60.024 344.966,109.726 365.67,121.687 394.365,71.985 "
   style="fill:#ffd700;fill-opacity:1;stroke-width:20.56308484;stroke-miterlimit:4;stroke-dasharray:none;stroke:#ffd700;stroke-opacity:1"
   id="polygon949" />

</g>
      </g>
    </g>
  </g>
  <style
     type="text/css"
     id="style871">
	.st0{fill:#374149;}
</style>
  <style
     type="text/css"
     id="style901">
	.st0{fill:#374149;}
</style>
  <style
     type="text/css"
     id="style925">
	.st0{fill:#374149;}
</style>
  <style
     type="text/css"
     id="style874">
	.st0{fill:#4B4B4B;}
</style>
  <style
     type="text/css"
     id="style884">
	.st0{fill:#4B4B4B;}
</style>
  <style
     type="text/css"
     id="style929">
	.st0{fill:#4B4B4B;}
</style>
</svg>
