<?xml version="1.0" encoding="UTF-8" standalone="no"?>
<svg
   xmlns:dc="http://purl.org/dc/elements/1.1/"
   xmlns:cc="http://creativecommons.org/ns#"
   xmlns:rdf="http://www.w3.org/1999/02/22-rdf-syntax-ns#"
   xmlns:svg="http://www.w3.org/2000/svg"
   xmlns="http://www.w3.org/2000/svg"
   xmlns:xlink="http://www.w3.org/1999/xlink"
   xmlns:sodipodi="http://sodipodi.sourceforge.net/DTD/sodipodi-0.dtd"
   xmlns:inkscape="http://www.inkscape.org/namespaces/inkscape"
   width="100mm"
   height="100mm"
   viewBox="0 0 100 100"
   version="1.1"
   id="svg8"
   inkscape:version="1.0.1 (3bc2e813f5, 2020-09-07)"
   sodipodi:docname="ConstructFishAttrubute.svg"
   inkscape:export-filename="C:\Users\hiroa\Desktop\ConstructFishAttribute.png"
   inkscape:export-xdpi="6.0959997"
   inkscape:export-ydpi="6.0959997">
  <defs
     id="defs2"><linearGradient
   inkscape:collect="always"
   id="linearGradient974">
  <stop
     style="stop-color:#4b4b4b;stop-opacity:1;"
     offset="0"
     id="stop970" />
  <stop
     style="stop-color:#4b4b4b;stop-opacity:0;"
     offset="1"
     id="stop972" />
</linearGradient>
<rect
   x="23.623512"
   y="86.178572"
   width="23.035423"
   height="17.804464"
   id="rect904" />
<rect
   x="23.623512"
   y="86.178574"
   width="15.686012"
   height="13.229167"
   id="rect904-4" />
<rect
   x="23.623512"
   y="86.178574"
   width="15.686012"
   height="13.229167"
   id="rect917" />
<rect
   x="23.623512"
   y="86.178574"
   width="15.686012"
   height="13.229167"
   id="rect904-4-7" />
<rect
   x="23.623512"
   y="86.178574"
   width="15.686012"
   height="13.229167"
   id="rect946" />
<rect
   x="23.623512"
   y="86.178574"
   width="15.686012"
   height="13.229167"
   id="rect904-8" />
<rect
   x="23.623512"
   y="86.178574"
   width="15.686012"
   height="13.229167"
   id="rect976" />
<rect
   x="23.623512"
   y="86.178574"
   width="24.207069"
   height="17.041914"
   id="rect904-9" />
<rect
   x="23.623512"
   y="86.178574"
   width="15.686012"
   height="13.229167"
   id="rect1005" />
<rect
   x="23.623512"
   y="86.178574"
   width="15.686012"
   height="13.229167"
   id="rect904-9-7" />
<rect
   x="23.623512"
   y="86.178574"
   width="15.686012"
   height="13.229167"
   id="rect1034" />
<rect
   x="23.623512"
   y="86.178574"
   width="17.496736"
   height="14.209588"
   id="rect904-94" />
<rect
   x="23.623512"
   y="86.178574"
   width="15.686012"
   height="13.229167"
   id="rect1064" />
<rect
   x="23.623512"
   y="86.178574"
   width="15.686012"
   height="13.229167"
   id="rect904-94-2" />
<rect
   x="23.623512"
   y="86.178574"
   width="15.686012"
   height="13.229167"
   id="rect1093" />
<rect
   x="23.623512"
   y="86.178574"
   width="15.686012"
   height="13.229167"
   id="rect904-94-2-3" />
<rect
   x="23.623512"
   y="86.178574"
   width="15.686012"
   height="13.229167"
   id="rect1122" />
<rect
   x="23.623512"
   y="86.178574"
   width="15.686012"
   height="13.229167"
   id="rect904-94-2-6" />
<rect
   x="23.623512"
   y="86.178574"
   width="15.686012"
   height="13.229167"
   id="rect1102" />
<radialGradient
   inkscape:collect="always"
   xlink:href="#linearGradient974"
   id="radialGradient978"
   cx="255.9995"
   cy="256.00085"
   fx="255.9995"
   fy="256.00085"
   r="255.9995"
   gradientTransform="matrix(1,0,0,0.81940108,0,46.233476)"
   gradientUnits="userSpaceOnUse" />

	
	
<clipPath
   clipPathUnits="userSpaceOnUse"
   id="clipPath963">
  <circle
     style="fill:none;fill-opacity:1;stroke:#000000;stroke-width:1.14793;stroke-linecap:square;stroke-linejoin:miter;stroke-miterlimit:4;stroke-dasharray:none;stroke-opacity:1"
     id="circle965"
     cx="36.02874"
     cy="22.798021"
     r="37.579876" />
</clipPath>
</defs>
  <sodipodi:namedview
     id="base"
     pagecolor="#ffffff"
     bordercolor="#666666"
     borderopacity="1.0"
     inkscape:pageopacity="0.0"
     inkscape:pageshadow="2"
     inkscape:zoom="0.69394897"
     inkscape:cx="-23.268922"
     inkscape:cy="54.708371"
     inkscape:document-units="mm"
     inkscape:current-layer="g931"
     inkscape:document-rotation="0"
     showgrid="false"
     inkscape:window-width="1662"
     inkscape:window-height="1041"
     inkscape:window-x="200"
     inkscape:window-y="0"
     inkscape:window-maximized="0" />
  <metadata
     id="metadata5">
    <rdf:RDF>
      <cc:Work
         rdf:about="">
        <dc:format>image/svg+xml</dc:format>
        <dc:type
           rdf:resource="http://purl.org/dc/dcmitype/StillImage" />
        <dc:title />
      </cc:Work>
    </rdf:RDF>
  </metadata>
  <g
     inkscape:label="レイヤー 1"
     inkscape:groupmode="layer"
     id="layer1"
     style="display:inline">
    <text
       xml:space="preserve"
       id="text902-5"
       style="font-style:normal;font-variant:normal;font-weight:normal;font-stretch:normal;font-size:12.8687px;line-height:1.25;font-family:sans-serif;-inkscape-font-specification:'sans-serif, Normal';font-variant-ligatures:normal;font-variant-caps:normal;font-variant-numeric:normal;font-variant-east-asian:normal;white-space:pre;shape-inside:url(#rect904-9);fill:#000000;fill-opacity:1;stroke:none;"
       transform="matrix(1.7743161,0,0,1.7348602,-42.572745,-91.778884)" />
    <g
       style="opacity:1"
       id="g953"
       transform="matrix(0.26458333,0,0,0.26458333,69.202537,112.93737)">
      <g
         id="g937" />
    </g>
    <g
       id="g922"
       transform="matrix(0.81117928,0,0,0.81117928,20.943421,32.063213)"
       clip-path="url(#clipPath963)">
      <g
         style="opacity:1;fill:#0c0c6f;fill-opacity:1"
         id="g899"
         transform="matrix(0.25084188,0,0,0.25084188,1.5901337,-10.940337)">
        <g
           id="g883"
           style="fill:#0c0c6f;fill-opacity:1">
          <path
             class="st0"
             d="m 165.683,106.525 c -0.183,0.094 -0.273,0.184 -0.363,0.367 -6.602,4.77 -8.16,14.031 -3.39,20.813 4.766,6.878 14.301,8.531 21.18,3.672 3.203,-2.29 5.406,-5.594 6.046,-9.262 0.918,-3.851 0.184,-8.25 -2.289,-11.922 -4.859,-6.879 -14.305,-8.523 -21.184,-3.668 z m 13.571,8.899 c -0.09,0.18 -0.367,0.367 -0.64,0.547 -2.294,1.652 -5.59,1.008 -7.242,-1.371 -1.008,-1.379 -1.191,-3.027 -0.641,-4.586 0.274,-1.101 0.918,-1.926 1.926,-2.66 2.379,-1.652 5.59,-1.102 7.242,1.282 1.558,2.112 1.191,5.045 -0.645,6.788 z"
             style="fill:#0c0c6f;fill-opacity:1"
             id="path873" />
          <path
             class="st0"
             d="m 221.434,173.737 c 1.102,-2.844 1.195,-4.035 1.285,-4.125 L 213,166.127 c 0,0 -0.641,1.649 -1.656,3.664 -0.91,2.114 -2.657,5.141 -4.95,8.531 -4.586,6.969 -12.102,15.219 -21.359,21.637 -2.386,1.562 -4.586,3.121 -6.973,4.406 -2.382,1.371 -4.766,2.66 -7.242,3.664 -4.77,2.11 -9.258,3.668 -13.386,4.586 -4.035,1.008 -7.43,1.649 -9.809,1.832 -2.386,0.184 -3.762,0.278 -3.762,0.278 l -0.274,10.27 c 0,0 6.598,1.008 16.23,-0.645 4.856,-0.824 10.45,-2.199 16.047,-4.586 2.84,-1.102 5.68,-2.473 8.434,-4.031 2.934,-1.469 5.774,-3.301 8.34,-4.953 10.546,-7.516 19.258,-17.606 23.934,-26.223 2.476,-4.219 3.942,-8.067 4.86,-10.82 z"
             style="fill:#0c0c6f;fill-opacity:1"
             id="path875" />
          <path
             class="st0"
             d="m 337.332,306.689 c 0,-0.274 -0.183,-0.55 -0.367,-0.734 l -5.41,-8.438 -5.133,-6.14 -0.918,-1.192 c -2.11,-2.476 -4.309,-4.402 -6.422,-6.695 -2.11,-2.199 -4.489,-4.214 -6.692,-6.234 -4.402,-4.125 -8.988,-7.699 -13.66,-11.461 -4.68,-3.394 -9.355,-7.062 -14.211,-10.176 -2.293,-1.558 -4.586,-3.117 -6.878,-4.496 -3.102,-2.008 -6.258,-3.766 -9.39,-5.679 -1.254,-0.766 -2.508,-1.528 -3.782,-2.286 -3.195,-1.914 -6.367,-3.977 -9.57,-5.789 -5.039,-2.84 -10.176,-5.5 -15.313,-8.156 l -7.882,-3.762 -4.129,-2.019 c -2.051,-0.855 -5.129,-1.77 -6.145,-2.187 -0.019,-0.024 -0.106,-0.051 -0.113,-0.074 l -0.004,0.027 c -0.035,-0.016 -0.126,-0.043 -0.153,-0.058 l -3.578,19.258 c 0.706,0.351 1.058,0.535 1.164,0.711 0.007,0.015 0.019,0.027 0.027,0.042 0.07,0.176 0,0.352 0,0.438 h 0.094 l 3.394,2.016 7.055,4.218 c 4.679,2.844 9.359,5.778 14.031,8.805 9.351,5.957 18.43,12.102 27.23,18.61 8.894,6.422 17.426,13.113 25.214,20.355 1.59,1.508 3.278,3.027 4.782,4.598 0.199,0.242 0.418,0.465 0.602,0.726 -1.614,0.09 -3.309,0.18 -4.922,0.18 -4.77,0.09 -9.441,0 -14.121,-0.183 -4.68,-0.274 -9.168,-0.641 -13.754,-1.192 -4.402,-0.644 -8.801,-1.469 -13.114,-2.476 -4.218,-1.188 -8.434,-2.57 -12.285,-4.309 -3.946,-1.653 -7.699,-3.668 -11.278,-6.145 -1.836,-1.102 -3.394,-2.477 -5.137,-3.762 -1.645,-1.371 -3.207,-2.93 -4.855,-4.398 l -14.582,13.207 c 3.578,4.305 7.426,8.34 12.012,11.824 4.312,3.574 9.168,6.691 14.214,9.262 5.043,2.75 10.266,4.586 15.586,6.422 5.226,1.554 10.542,2.835 15.859,3.847 5.23,0.824 10.55,1.558 15.863,2.016 5.23,0.367 10.453,0.457 15.68,0.55 7.523,0 15.039,-0.274 22.465,-0.641 2.75,-0.183 5.504,-0.277 8.254,-0.55 h 0.645 c 2.011,-0.278 3.938,-0.734 5.774,-1.926 0.55,-0.462 1.191,-0.829 1.648,-1.375 2.66,-2.477 3.946,-6.051 3.762,-9.629 -0.09,0 -0.09,-0.184 -0.09,-0.184 -0.182,-1.648 -0.549,-3.297 -1.467,-4.766 z"
             style="fill:#0c0c6f;fill-opacity:1"
             id="path877" />
          <path
             class="st0"
             d="m 379.875,354.826 c 2.566,0.094 5.41,0.461 8.16,1.102 11.278,2.199 20.906,8.985 33.742,15.863 12.652,6.875 26.957,10.086 38.328,9.992 11.461,0.094 21.183,-1.465 29.156,-3.941 7.977,-2.294 13.664,-5.598 17.332,-7.887 3.664,-2.293 5.406,-3.668 5.406,-3.668 l -5.32,-9.168 c 0,0 -1.829,0.828 -5.313,2.11 -3.578,1.187 -8.711,2.566 -15.317,3.301 -6.598,0.73 -15.034,0.367 -24.202,-1.012 -9.352,-1.558 -18.066,-4.949 -27.325,-11.277 -4.679,-3.114 -9.718,-7.426 -16.14,-11.645 -6.325,-4.218 -14.118,-8.344 -22.645,-10.91 -2.293,-0.734 -4.676,-1.374 -7.242,-1.832 0.824,-5.5 1.282,-9.718 1.469,-13.48 0.363,-4.582 0.363,-9.074 0.363,-13.848 -0.09,-4.586 -0.363,-9.442 -0.641,-13.934 -0.183,-1.465 -0.273,-2.84 -0.367,-4.214 -0.273,-2.754 -0.55,-5.414 -1.007,-8.715 l -0.278,-1.836 c -0.551,-3.847 -1.098,-7.699 -1.926,-11.278 -3.211,-17.328 -7.973,-34.382 -14.122,-50.613 -3.117,-8.89 -6.965,-17.602 -9.992,-24.203 -1.832,-3.942 -3.762,-7.793 -5.778,-11.649 l -1.102,-2.293 22.192,-29.062 0.644,-0.824 c 1.555,-2.016 2.477,-4.309 3.02,-7.062 1.195,-8.434 -4.672,-16.317 -13.02,-17.606 L 226.016,93.322 C 201.633,78.658 172.289,65.631 136.434,53.346 l -18.977,-6.418 c -3.301,-1.191 -6.973,-0.824 -9.992,0.918 -3.027,1.742 -5.23,4.679 -5.965,8.16 L 99.183,67.295 98.824,68.924 87.016,64.44 c -3.672,-1.371 -7.61,-1.004 -10.914,1.102 -3.203,2.015 -5.313,5.41 -5.68,9.262 l -2.019,23.473 c -4.586,53.09 -5.961,102.234 24.664,164.675 -0.274,1.742 -0.457,3.485 -0.641,5.23 -1.008,10.817 -1.558,21.543 -1.558,31.997 -0.094,5.414 0.183,10.82 0.457,16.598 l 0.367,3.39 c 0.367,4.309 0.825,8.711 1.653,13.11 l 0.183,1.382 c 0.367,2.469 0.734,4.95 1.375,7.242 l 0.55,2.106 c 0.458,2.289 1.008,4.402 1.742,6.602 l 0.793,2.386 0.102,0.379 c -0.82,0.453 -1.637,0.906 -2.453,1.27 -0.094,0.094 -0.184,0.183 -0.278,0.183 -5.042,2.293 -10.546,3.762 -15.402,4.676 -2.66,0.546 -6.148,0.641 -9.078,1.008 -1.832,0.094 -5.137,0.367 -7.52,0.273 -5.133,0.094 -9.812,-0.546 -14.214,-1.461 -8.707,-1.926 -16.043,-5.594 -22.555,-9.172 -6.511,-3.578 -12.102,-6.324 -16.23,-7.976 -4.031,-1.653 -5.957,-2.199 -5.957,-2.199 L 0,349.6 c 0,0 0.457,0.274 1.285,0.824 0.918,0.551 2.383,1.286 3.758,2.387 3.027,1.832 7.336,5.41 13.207,9.992 5.863,4.586 13.93,11 25.214,15.039 5.496,2.015 11.641,3.758 18.152,4.586 3.391,0.543 6.051,0.734 10.266,0.91 3.21,0 5.965,0.281 9.633,0 7.882,-0.454 15.496,-1.645 23.289,-4.305 2.844,-1.008 5.594,-2.11 8.25,-3.394 1.102,-0.551 2.294,-1.102 3.395,-1.649 3.484,-1.746 6.878,-3.668 9.992,-5.594 0.918,-0.55 1.742,-1.102 2.566,-1.558 3.945,-2.477 7.609,-4.496 11.187,-6.145 4.676,-2.106 9.258,-3.664 14.122,-4.582 0.457,-0.09 0.918,-0.184 1.374,-0.184 2.11,-0.461 4.313,-0.641 6.606,-0.824 3.114,-0.094 7.058,-0.278 9.809,-0.094 l 6.05,0.457 4.402,0.734 c 6.047,1.195 12.012,3.39 17.692,6.785 0.734,0.458 1.468,0.825 2.293,1.286 0,0.09 0.094,0.09 0.183,0.09 1.012,0.641 2.02,1.286 3.122,2.019 4.492,2.934 9.441,6.414 15.402,9.993 8.433,5.137 18.886,9.258 29.16,11.183 5.039,0.734 10.175,1.562 15.125,1.653 l 3.762,0.094 0.457,0.09 1.192,-0.09 h 0.828 l 1.558,-0.094 6.414,-0.367 c 11.285,-1.008 21.183,-3.668 30.718,-8.161 9.262,-4.398 16.778,-9.898 23.016,-14.027 0.09,0 0.09,-0.09 0.183,-0.09 0.734,-0.461 1.375,-0.918 2.016,-1.285 5.32,-3.578 10.086,-5.958 15.222,-7.7 2.934,-0.828 5.867,-1.652 9.074,-2.019 2.754,-0.734 7.156,-0.641 8.988,-1.008 l 5.778,0.09 h 2.843 l 2.016,0.183 h 0.276 z m -18.688,-54.863 c -6.949,-21.742 -15.171,-42.203 -23.031,-59.656 l 15.039,3.297 c 1.836,6.606 3.297,13.39 4.582,20.172 0.824,3.855 1.285,7.703 1.836,11.648 0.55,3.207 0.824,8.066 1.191,12.008 0.183,3.946 0.367,7.523 0.457,11.371 0,0.309 0,0.617 0,0.926 -0.019,0.078 -0.039,0.156 -0.074,0.234 z m -18.449,25.156 c -0.367,0.547 -0.824,1.008 -1.278,1.465 -5.871,1.469 -11.558,3.762 -16.781,6.418 -0.734,0.457 -1.469,0.824 -2.11,1.191 -0.734,0.367 -1.469,0.832 -2.203,1.195 -1.742,0.914 -3.394,1.832 -4.953,2.84 -7.516,4.77 -13.473,8.898 -19.344,11.461 -5.687,2.57 -12.379,4.039 -17.973,4.586 l -6.324,0.277 h -2.57 l -2.383,-0.094 c -3.578,0 -6.874,-0.457 -10.175,-0.824 -6.508,-1.191 -12.106,-3.301 -18.246,-6.782 -6.145,-3.394 -13.117,-8.714 -21.918,-13.484 -8.891,-4.676 -18.977,-7.977 -29.066,-9.352 l -7.794,-0.734 -6.144,-0.183 c -2.379,-0.09 -4.672,0 -6.782,0.094 l -3.305,-4.125 c -4.855,-6.145 -9.718,-12.653 -14.484,-19.531 l -1.008,-1.469 c -11.648,-16.684 -20.816,-32.09 -28.058,-46.762 -1.832,-3.668 -3.574,-7.246 -5.137,-10.817 C 92.515,189.966 93.432,148.887 97.468,100.845 l 0.172,-1.055 0.015,-0.046 15.489,5.863 c 3.851,1.469 8.074,-0.825 8.898,-4.856 l 2.473,-12.062 0.586,-2.683 c 3.114,1.465 7.41,3.473 12.801,6.035 3.789,1.89 8.222,4.137 12.926,6.687 0.527,0.305 1.008,0.543 1.543,0.859 -8.782,9.902 -10.058,24.922 -2.09,36.282 9.262,13.203 27.691,16.504 40.984,7.148 4.543,-3.175 7.906,-7.441 9.934,-12.156 0.019,-0.043 0.054,-0.078 0.074,-0.121 8.617,6.507 17.965,14.301 24.375,21.996 7.43,10.274 6.148,29.801 13.851,41.906 4.855,6.969 15.492,22.374 27.32,39.976 7.43,4.496 14.856,9.172 22.192,13.938 4.214,2.844 8.16,5.871 12.102,8.707 l 2.839,2.114 2.57,2.199 c 3.852,3.027 7.797,6.144 11.461,9.629 l 1.375,1.191 c 0.824,0.734 1.558,1.375 2.293,2.11 1.102,1.007 2.294,2.109 3.395,3.301 0.64,0.734 1.281,1.374 2.015,2.109 0.461,0.462 0.914,0.918 1.371,1.375 1.199,1.102 2.293,2.199 3.305,3.574 l 6.234,7.43 0.461,0.734 5.406,8.34 c 4.865,7.524 4.131,17.148 -1.1,23.75 z M 194.386,125.693 c -1.469,4.121 -4.129,7.883 -7.886,10.543 -9.539,6.781 -22.832,4.398 -29.434,-5.137 -6.05,-8.618 -4.77,-20.352 2.754,-27.418 0.727,-0.726 1.555,-1.374 2.477,-2.011 2.656,-1.926 5.774,-3.118 8.89,-3.578 7.699,-1.191 15.774,2.02 20.539,8.711 0.274,0.457 0.551,0.918 0.824,1.465 3.212,5.413 3.763,11.828 1.836,17.425 z m 142.649,71.297 c 0.058,0.25 0.18,0.465 0.211,0.754 l -22.566,-4.938 c -3.387,-6.051 -5.497,-9.626 -5.958,-10.27 l -0.367,-0.73 -4.675,-6.695 c -1.469,-2.11 -2.934,-4.309 -4.493,-6.418 -1.191,-1.832 -2.566,-3.758 -3.941,-5.59 l 29.25,6.414 c 0.09,1.375 0.551,2.934 1.286,4.313 l 0.273,0.274 c 1.653,3.21 3.578,6.875 5.317,10.359 1.742,3.668 3.39,7.34 5.043,10.91 0.249,0.563 0.429,1.086 0.62,1.617 z m 13.598,37.523 -16.695,-3.652 c -0.551,-1.102 -1.008,-2.293 -1.649,-3.301 -0.094,-0.183 -0.277,-0.461 -0.367,-0.824 -4.398,-9.352 -8.621,-17.61 -12.105,-24.39 l 21.363,4.679 c 1.469,3.57 2.75,7.149 4.035,10.726 1.808,5.004 3.414,9.962 4.926,15.016 0.152,0.579 0.351,1.169 0.492,1.746 z m -5.656,-96.1 -18.098,22.855 c -0.09,0 -0.184,0.183 -0.184,0.274 l -38.969,-8.438 c -7.703,-9.902 -16.687,-19.801 -27.875,-29.703 l 57.555,10.098 z m -221.86,196.882 c -0.71,-2.094 -0.992,-4.519 -1.347,-6.691 -1.746,-9.258 -2.386,-18.985 -2.844,-28.793 v -0.458 c 3.02,4.77 6.23,9.539 9.719,14.394 1.832,2.57 3.574,5.137 5.41,7.61 -1.836,2.703 -3.824,5.398 -5.863,8.082 -1.559,1.922 -3.184,3.852 -5.075,5.856 z"
             style="fill:#0c0c6f;fill-opacity:1"
             id="path879" />
          <path
             class="st0"
             d="m 254.016,426.62939 c -1.063,0.035 -2.157,0.168 -3.165,0.122 -4.129,-0.008 -7.843,-0.391 -11.258,-1.246 -6.722,-1.722 -12.938,-5.378 -17.875,-7.351 -2.359,-1.008 -4.683,-1.727 -5.926,-2.043 -1.305,-0.324 -1.996,-0.5 -1.996,-0.5 l -2.77,6.012 c 0,0 0.582,0.418 1.68,1.203 1.141,0.793 2.246,1.882 4.11,3.41 1.793,1.535 3.882,3.555 6.664,5.852 2.746,2.305 6.246,5.007 10.726,7.179 4.434,2.25 9.73,3.934 15.254,4.657 1.39,0.262 2.762,0.32 4.176,0.476 l 1.058,0.098 c 0.352,0.012 -0.039,0.043 0.926,0.039 l 0.473,0.016 1.898,0.062 c 1.363,0.015 2.359,0.148 4.051,-0.02 1.64,-0.16 3.297,-0.316 4.965,-0.476 6.277,-0.922 13.074,-3.074 18.594,-6.391 5.535,-3.226 9.898,-6.398 13.898,-8.367 3.906,-2.144 7.82,-3.374 12.344,-3.906 2.14,-0.219 4.766,-0.477 6.672,-0.524 l 4,0.012 2.878,0.242 c 4.07,0.542 7.926,1.461 11.672,3.16 3.734,1.699 7.68,3.977 11.832,6.008 4.114,2.07 8.41,3.672 12.285,4.398 3.84,0.878 7.246,1.004 9.946,0.942 2.722,0.094 4.789,-0.395 6.195,-0.532 1.394,-0.191 2.141,-0.297 2.141,-0.297 v -6.617 c 0,0 -0.66,-0.16 -1.902,-0.465 -1.226,-0.309 -3.046,-0.695 -5.195,-1.43 -2.184,-0.629 -4.691,-1.641 -7.34,-2.981 -2.687,-1.297 -5.34,-3.23 -8.422,-5.566 -3.062,-2.359 -6.512,-5.515 -11.25,-8.492 -4.691,-3.027 -10.511,-5.715 -16.855,-6.957 -1.668,-0.27 -3.344,-0.547 -5.031,-0.825 l -4.082,-0.371 c -3.515,-0.258 -6.406,-0.195 -9.77,0.11 -6.507,0.527 -13.613,2.481 -19.656,5.61 -6.023,3.203 -10.656,6.898 -14.66,9.316 -4.004,2.367 -7.558,4.114 -11.676,5.09 l -2.808,0.566 c -0.879,0.222 -2.458,0.262 -3.63,0.445 l -1.886,0.219 -0.469,0.058 c 0.649,-0.012 -0.05,0.008 -0.012,0.012 z"
             style="fill:#0c0c6f;fill-opacity:1"
             id="path881" />
        </g>
      </g>
      <path
         style="fill:#e9f3fe;fill-opacity:1;stroke:none;stroke-width:9.64758;stroke-linecap:round;stroke-linejoin:round;stroke-miterlimit:4;stroke-dasharray:none;stroke-opacity:0.327434"
         d="m 64.45453,77.140014 c -0.743369,-0.239952 -3.228185,-1.566141 -5.521821,-2.947094 -4.835246,-2.911206 -8.479481,-4.11724 -12.440926,-4.11724 -2.773053,0 -2.846247,-0.03776 -4.625173,-2.38442 C 33.503135,56.658508 28.377426,46.009113 26.642684,36.061368 25.902399,31.816266 25.61518,18.909078 26.196339,16.00329 l 0.297923,-1.489614 2.12074,0.762614 c 2.863152,1.029584 3.668429,0.611692 4.077466,-2.115968 l 0.338554,-2.25763 3.136461,1.546658 3.136459,1.546658 -0.737503,1.478356 c -0.486504,0.975222 -0.660701,2.404446 -0.511842,4.199478 0.241858,2.916476 1.410076,4.672365 4.00786,6.02399 2.871034,1.493796 7.413489,0.484146 9.266529,-2.059667 l 1.007395,-1.382932 3.098586,2.952409 c 2.989427,2.848401 3.139523,3.112916 4.260656,7.508463 1.005018,3.940306 1.659389,5.280051 4.841849,9.913073 3.436731,5.003189 4.010664,5.577296 8.689424,8.692076 9.064614,6.034559 14.91748,12.438882 14.91748,16.322992 0,2.235787 -0.150359,2.381069 -5.019833,4.850258 -2.070684,1.049987 -4.884948,2.562168 -6.253929,3.360403 -2.135367,1.245106 -3.09832,1.470522 -6.776776,1.586357 -2.358253,0.07427 -4.895939,-0.0613 -5.639308,-0.30125 z m 19.107621,-6.527986 c 2.438966,-0.471107 3.057242,-1.117228 3.06859,-3.20681 0.01645,-3.030387 -5.946705,-9.356053 -13.79149,-14.629884 -4.805137,-3.230363 -14.160155,-8.273938 -15.376694,-8.290041 -0.602243,-0.008 -0.90238,0.656959 -1.154531,2.557746 -0.187398,1.412684 -0.272971,2.628382 -0.190163,2.701552 0.0828,0.07317 1.731807,1.089199 3.664443,2.257843 4.211183,2.546457 12.269932,8.298897 15.059507,10.749666 1.932078,1.697424 1.960024,1.764779 0.73981,1.78291 -2.866185,0.04261 -9.76465,-1.089051 -12.205252,-2.002193 -1.436356,-0.537411 -3.391263,-1.628039 -4.344235,-2.423615 l -1.73268,-1.446505 -1.895973,1.523645 c -1.042785,0.838008 -1.895974,1.807075 -1.895974,2.153492 0,1.050634 4.08109,4.265578 7.278765,5.733958 2.674646,1.228207 5.938307,2.123714 9.788678,2.6859 2.482606,0.362478 10.837963,0.267477 12.987199,-0.147664 z M 45.717944,44.41661 c 4.926424,-1.878605 9.912019,-6.671121 11.345846,-10.906448 0.597547,-1.765074 0.355587,-2.281471 -1.302274,-2.779329 -0.791298,-0.23763 -1.163222,0.04793 -1.724474,1.324035 -1.059889,2.409841 -5.916195,7.010707 -9.024788,8.550083 -1.497348,0.74149 -3.812748,1.492794 -5.145332,1.669571 -2.371091,0.314534 -2.422885,0.358812 -2.422885,2.071515 v 1.750111 l 2.877581,-0.359529 c 1.582672,-0.197741 4.011015,-0.791745 5.396326,-1.320009 z"
         id="path3004" />
      <path
         style="fill:#ffffff;fill-opacity:1;stroke:none;stroke-width:2.41189;stroke-linecap:round;stroke-linejoin:round;stroke-miterlimit:4;stroke-dasharray:none;stroke-opacity:0.327434"
         d="m 44.004883,23.960758 c -1.488682,-0.410538 -2.723735,-1.469451 -3.414427,-2.92747 -0.370481,-0.782065 -0.399702,-0.940278 -0.399702,-2.164097 0,-1.2423 0.02467,-1.370483 0.417555,-2.168521 0.529304,-1.075168 1.413962,-1.962233 2.480588,-2.48733 0.701801,-0.345495 1.009459,-0.419366 1.929865,-0.46337 1.374283,-0.06571 2.2208,0.163725 3.280982,0.889242 2.572816,1.760664 2.983579,5.382256 0.879925,7.758057 -1.238711,1.398966 -3.401659,2.052467 -5.174786,1.563489 z m 2.685532,-1.450549 c 2.43184,-0.909869 3.261352,-3.959564 1.650739,-6.068921 -0.646682,-0.846932 -1.822789,-1.391298 -2.995351,-1.386404 -1.46094,0.0061 -2.819894,0.83219 -3.491999,2.122752 -0.363419,0.697815 -0.446609,2.203018 -0.168109,3.041508 0.656235,1.975739 2.990935,3.044519 5.00472,2.291065 z"
         id="path3006" />
      <path
         style="fill:#ffffff;fill-opacity:1;stroke:none;stroke-width:2.41189;stroke-linecap:round;stroke-linejoin:round;stroke-miterlimit:4;stroke-dasharray:none;stroke-opacity:0.327434"
         d="m 45.180288,18.18217 c -1.212044,-0.523778 -0.848412,-2.322242 0.469536,-2.322242 0.880211,0 1.456378,0.842201 1.12443,1.643604 -0.274625,0.662995 -0.957443,0.953708 -1.593966,0.678638 z"
         id="path3008" />
      <path
         style="fill:#e9f3fe;fill-opacity:1;stroke:none;stroke-width:2.41189;stroke-linecap:round;stroke-linejoin:round;stroke-miterlimit:4;stroke-dasharray:none;stroke-opacity:0.327434"
         d="M 78.663996,28.460477 C 76.01143,27.88299 73.802145,27.367034 73.75447,27.313906 c -0.04767,-0.05314 -0.672547,-0.802515 -1.3886,-1.665296 -0.716054,-0.862785 -2.19648,-2.460444 -3.289839,-3.550352 -1.308852,-1.30472 -1.8878,-1.958717 -1.694805,-1.914512 0.161218,0.03693 3.512098,0.628977 7.44639,1.315668 8.967765,1.565236 13.040281,2.2913 13.091348,2.33398 0.03139,0.02622 -4.059335,5.281512 -4.356865,5.5972 -0.0414,0.04391 -2.245542,-0.392632 -4.898103,-0.970117 z"
         id="path3010" />
      <path
         style="fill:#e9f3fe;fill-opacity:1;stroke:none;stroke-width:2.41189;stroke-linecap:round;stroke-linejoin:round;stroke-miterlimit:4;stroke-dasharray:none;stroke-opacity:0.327434"
         d="m 83.244938,37.964506 -2.626316,-0.58657 -1.017519,-1.691924 c -0.559635,-0.930561 -1.615312,-2.539024 -2.345946,-3.574366 -0.730635,-1.035342 -1.308199,-1.90525 -1.283476,-1.933133 0.02474,-0.02787 1.57769,0.281839 3.45103,0.688262 3.209184,0.696234 3.413425,0.7572 3.533253,1.054657 0.06995,0.173642 0.508817,1.078098 0.975261,2.009904 0.838334,1.674731 2.128276,4.448912 2.128276,4.57713 0,0.08906 0.146465,0.117364 -2.814563,-0.54396 z"
         id="path3012" />
      <path
         style="fill:#e9f3fe;fill-opacity:1;stroke:none;stroke-width:2.41189;stroke-linecap:round;stroke-linejoin:round;stroke-miterlimit:4;stroke-dasharray:none;stroke-opacity:0.327434"
         d="M 87.212884,47.316697 85.417112,46.917829 83.72925,43.47944 c -0.928327,-1.891114 -1.667584,-3.458668 -1.642798,-3.483455 0.02478,-0.02478 1.167612,0.201383 2.539611,0.502605 l 2.494543,0.547674 0.289667,0.740769 c 0.361212,0.923731 1.575275,4.437528 1.832529,5.303798 0.232437,0.7827 0.395412,0.764568 -2.029918,0.225866 z"
         id="path3014" />
      <path
         style="fill:#e9f3fe;fill-opacity:1;stroke:none;stroke-width:2.41189;stroke-linecap:round;stroke-linejoin:round;stroke-miterlimit:4;stroke-dasharray:none;stroke-opacity:0.327434"
         d="M 91.779672,62.826766 C 91.057693,60.500655 88.454635,53.74866 87.147125,50.810534 86.839963,50.120306 86.630722,49.539513 86.68214,49.519885 c 0.09928,-0.0379 3.385535,0.672495 3.449184,0.745618 0.211221,0.242676 1.351852,5.940142 1.64169,8.200279 0.195892,1.527532 0.398731,5.082585 0.289998,5.082585 -0.03264,0 -0.160156,-0.324722 -0.28334,-0.721601 z"
         id="path3016" />
      <path
         style="fill:#e9f3fe;fill-opacity:1;stroke:none;stroke-width:2.41189;stroke-linecap:round;stroke-linejoin:round;stroke-miterlimit:4;stroke-dasharray:none;stroke-opacity:0.327434"
         d="m 32.417346,72.69228 c -0.037,-0.163048 -0.178372,-0.97413 -0.314171,-1.802402 -0.219149,-1.336636 -0.30244,-2.149622 -0.578575,-5.647316 l -0.06935,-0.878471 0.464823,0.690226 c 0.255651,0.379626 1.082596,1.583785 1.837653,2.675915 l 1.372829,1.985684 -1.064388,1.402702 c -0.585415,0.771488 -1.180751,1.507871 -1.322972,1.636409 -0.253771,0.229358 -0.259834,0.228188 -0.325845,-0.06275 z"
         id="path3018" />
    </g>
  </g>
  <g
     inkscape:groupmode="layer"
     id="layer3"
     inkscape:label="レイヤー 2"
     style="display:inline">
    <g
       id="g931"
       transform="translate(-102.44801,-47.180007)">
      <g
         id="g901"
         transform="matrix(0.97628893,0,0,0.97628893,16.892317,-17.951388)"
         style="display:inline;fill:none;stroke:#000000;stroke-width:0.7;stroke-miterlimit:4;stroke-dasharray:none;stroke-opacity:1">
        <path
           class="st0"
           d="m 76.481114,63.695837 -9.83668,-1.430602 c -0.61622,-0.0471 -1.14723,-0.434446 -1.38324,-1.005417 l -3.18929,-7.69567 c -0.23839,-0.568855 -0.13917,-1.220523 0.26458,-1.687777 l 5.88513,-7.90575 c 0.93477,-1.09564 0.87339,-2.728913 -0.14658,-3.748617 l -4.65719,-4.655079 c -1.01759,-1.019704 -2.65351,-1.08585 -3.74624,-0.146314 l -7.90813,5.882481 c -0.46514,0.401637 -1.12131,0.505354 -1.68804,0.269346 l -7.69779,-3.191404 c -0.56912,-0.233628 -0.95832,-0.774171 -1.00806,-1.383242 l -1.42584,-9.834298 c -0.11324,-1.439863 -1.31234,-2.549261 -2.7522,-2.549261 h -6.58627 c -1.44198,0 -2.64134,1.109398 -2.7522,2.549261 l -1.4306,9.834298 c -0.045,0.613833 -0.43444,1.149614 -1.0033,1.383242 l -7.70017,3.191404 c -0.56912,0.236008 -1.22052,0.132291 -1.69016,-0.269346 L 8.1252142,35.420611 c -1.09273,-0.937155 -2.72627,-0.873655 -3.74835,0.146314 l -4.65508005,4.655079 c -1.01969995,1.019704 -1.08108995,2.653242 -0.14658,3.748617 l 5.88275005,7.907866 c 0.39899,0.465138 0.50535,1.118923 0.26696,1.685661 l -3.18929,7.69567 c -0.23124,0.571236 -0.76941,0.958321 -1.38086,1.008063 l -9.841174,1.428221 c -1.4353652,0.113506 -2.5447632,1.312598 -2.5447632,2.754841 v 6.583627 c 0,1.439863 1.109663,2.643981 2.5447632,2.752461 l 9.841174,1.42822 c 0.61145,0.04974 1.14962,0.438944 1.38086,1.008063 l 3.18929,7.695671 c 0.23839,0.571235 0.13229,1.22502 -0.26696,1.690158 l -5.88275005,7.908131 c -0.93476995,1.095375 -0.87338995,2.723886 0.14658,3.748617 l 4.65508005,4.655079 c 1.02208,1.0197 2.65562,1.08109 3.74835,0.14393 l 7.9036298,-5.885124 c 0.46964,-0.396346 1.12104,-0.502708 1.69016,-0.264054 l 7.70017,3.186638 c 0.56912,0.23866 0.95832,0.77206 1.00595,1.38801 l 1.42822,9.8343 c 0.11324,1.43748 1.31021,2.54952 2.75219,2.54952 h 6.58628 c 1.44224,0 2.63895,-1.11204 2.75219,-2.54952 l 1.42584,-9.8343 c 0.0497,-0.61595 0.43895,-1.14935 1.00806,-1.38801 l 7.70017,-3.186638 c 0.56674,-0.238654 1.22291,-0.132292 1.68778,0.264054 l 7.90601,5.885124 c 1.09273,0.93716 2.72892,0.87577 3.74624,-0.14393 l 4.6572,-4.655079 c 1.02235,-1.024731 1.08135,-2.653242 0.14657,-3.748617 l -5.88512,-7.908131 c -0.39661,-0.465138 -0.50271,-1.118923 -0.26459,-1.690158 l 3.18929,-7.695671 c 0.23601,-0.569119 0.76703,-0.958321 1.38324,-1.008063 l 9.83668,-1.42822 c 1.43775,-0.10848 2.54715,-1.312598 2.54715,-2.752461 v -6.583627 c -2.7e-4,-1.442508 -1.10967,-2.6416 -2.54741,-2.755106 z"
           style="fill:none;fill-opacity:1;stroke:#000000;stroke-width:0.7;stroke-linecap:square;stroke-linejoin:miter;stroke-miterlimit:4;stroke-dasharray:none;stroke-opacity:1"
           id="path876"
           sodipodi:nodetypes="ccccccccccccccsscccccccsccccccssccccccccccccccssccccccccccccccscc" />
      </g>
      <circle
         style="fill:none;fill-opacity:1;stroke:#000000;stroke-width:0.677177;stroke-linecap:square;stroke-linejoin:miter;stroke-miterlimit:4;stroke-dasharray:none;stroke-opacity:1"
         id="path924"
         cx="50.010803"
         cy="50.280403"
         r="22.168839" />
      <path
         style="fill:#000000;fill-opacity:1;stroke:#000000;stroke-width:3.70076;stroke-linecap:square;stroke-linejoin:miter;stroke-miterlimit:4;stroke-dasharray:none;stroke-opacity:1"
         d="m 147.34485,144.3909 c -0.56399,-0.71699 -1.01496,-2.66516 -1.56552,-6.76301 -0.42533,-3.16575 -0.98714,-6.0346 -1.24847,-6.37522 -0.70039,-0.91291 -9.91458,-4.5559 -10.80689,-4.27269 -0.4187,0.13289 -2.91564,1.8559 -5.54876,3.82893 -2.63313,1.97302 -5.15961,3.58732 -5.61442,3.58732 -0.97015,0 -6.88092,-5.72189 -7.25192,-7.02019 -0.19065,-0.66718 0.68487,-2.15189 3.56262,-6.04145 2.09847,-2.83628 3.8154,-5.51117 3.8154,-5.9442 0,-0.8913 -3.55137,-9.68037 -4.15572,-10.2847 -0.21641,-0.21642 -3.13062,-0.77651 -6.476,-1.24463 -7.8472,-1.09808 -7.98667,-1.21839 -7.98667,-6.889904 0,-5.557139 -0.0497,-5.514017 7.61662,-6.611075 4.28235,-0.612811 6.34759,-1.092504 6.83744,-1.588135 0.81404,-0.823623 4.16433,-8.863424 4.16433,-9.993235 0,-0.419441 -1.47572,-2.773514 -3.27938,-5.231272 -3.46416,-4.720455 -4.29786,-5.990745 -4.32224,-6.585679 -0.008,-0.201274 1.44614,-1.867408 3.23197,-3.702522 2.33907,-2.403609 3.54152,-3.336567 4.30038,-3.336567 0.66424,0 2.82238,1.328725 5.84188,3.596734 2.9138,2.188608 5.18682,3.596734 5.80593,3.596734 1.32949,0 9.16916,-3.244561 10.04759,-4.158344 0.45102,-0.469165 0.97585,-2.7497 1.55657,-6.763654 0.48186,-3.330707 1.10346,-6.329751 1.38131,-6.664539 0.38518,-0.464112 1.64649,-0.608707 5.30978,-0.608707 5.91527,0 5.7035,-0.237006 6.74087,7.544097 0.48455,3.634412 0.99216,5.920541 1.42752,6.429033 0.81784,0.955215 8.60721,4.222114 10.06692,4.222114 0.64564,0 2.88014,-1.367236 5.87821,-3.596734 2.80875,-2.088709 5.24799,-3.596734 5.81774,-3.596734 1.07463,0 7.47681,6.211856 7.47282,7.250661 -0.001,0.317638 -1.70778,2.862509 -3.79233,5.655266 -2.08455,2.792759 -3.79728,5.423017 -3.80608,5.845019 -0.0223,1.070686 3.35237,9.233734 4.17474,10.098329 0.4754,0.499814 2.49254,0.970151 6.81105,1.588135 7.62427,1.091045 7.61661,1.084609 7.61661,6.403188 0,4.098411 -0.5225,5.808161 -1.87091,6.122181 -0.48374,0.11266 -3.42874,0.57226 -6.54445,1.02133 -3.1157,0.44908 -5.81771,0.97119 -6.00446,1.16025 -0.55533,0.56219 -4.19856,9.50348 -4.19856,10.30419 0,0.4058 1.71374,3.06417 3.8083,5.90751 2.09457,2.84333 3.80831,5.46924 3.80831,5.83537 0,0.98424 -6.45772,7.28213 -7.46694,7.28213 -0.46778,0 -3.00487,-1.6143 -5.63799,-3.58732 -2.63312,-1.97303 -5.12727,-3.69515 -5.54253,-3.82696 -1.16685,-0.37033 -10.57644,3.60548 -10.99912,4.64744 -0.19249,0.47447 -0.66942,3.24288 -1.05987,6.15199 -0.69608,5.18624 -1.11211,6.66996 -2.04487,7.29278 -0.25607,0.17098 -2.40352,0.3138 -4.77211,0.31736 -4.03558,0.006 -4.35636,-0.0569 -5.0987,-1.00062 z m 12.29136,-22.97306 c 10.02914,-2.94612 17.30593,-12.02053 17.95583,-22.391505 0.29526,-4.711655 -0.46244,-8.589357 -2.51452,-12.868662 -5.0397,-10.509558 -16.98917,-16.062133 -28.65086,-13.313232 -10.79488,2.544574 -19.07048,13.09603 -19.07048,24.315007 0,10.362492 6.97886,20.315322 16.62134,23.704382 4.99657,1.75616 10.86016,1.9636 15.65869,0.55401 z"
         id="path969" />
    </g>
  </g>
  <style
     type="text/css"
     id="style871">
	.st0{fill:#374149;}
</style>
  <style
     type="text/css"
     id="style901">
	.st0{fill:#374149;}
</style>
  <style
     type="text/css"
     id="style925">
	.st0{fill:#374149;}
</style>
  <style
     type="text/css"
     id="style874">
	.st0{fill:#4B4B4B;}
</style>
</svg>
