<?xml version="1.0" encoding="UTF-8" standalone="no"?>
<svg
   xmlns:dc="http://purl.org/dc/elements/1.1/"
   xmlns:cc="http://creativecommons.org/ns#"
   xmlns:rdf="http://www.w3.org/1999/02/22-rdf-syntax-ns#"
   xmlns:svg="http://www.w3.org/2000/svg"
   xmlns="http://www.w3.org/2000/svg"
   xmlns:xlink="http://www.w3.org/1999/xlink"
   xmlns:sodipodi="http://sodipodi.sourceforge.net/DTD/sodipodi-0.dtd"
   xmlns:inkscape="http://www.inkscape.org/namespaces/inkscape"
   width="100mm"
   height="100mm"
   viewBox="0 0 100 100"
   version="1.1"
   id="svg8"
   inkscape:version="1.0.1 (3bc2e813f5, 2020-09-07)"
   sodipodi:docname="DeconstructFish.svg"
   inkscape:export-filename="C:\Users\hiroa\Desktop\DeconstructFishIcon.png"
   inkscape:export-xdpi="6.0959997"
   inkscape:export-ydpi="6.0959997">
  <defs
     id="defs2">
    <linearGradient
       inkscape:collect="always"
       id="linearGradient974">
      <stop
         style="stop-color:#4b4b4b;stop-opacity:1;"
         offset="0"
         id="stop970" />
      <stop
         style="stop-color:#4b4b4b;stop-opacity:0;"
         offset="1"
         id="stop972" />
    </linearGradient>
    <rect
       x="23.623512"
       y="86.178572"
       width="23.035423"
       height="17.804464"
       id="rect904" />
    <rect
       x="23.623512"
       y="86.178574"
       width="15.686012"
       height="13.229167"
       id="rect904-4" />
    <rect
       x="23.623512"
       y="86.178574"
       width="15.686012"
       height="13.229167"
       id="rect917" />
    <rect
       x="23.623512"
       y="86.178574"
       width="15.686012"
       height="13.229167"
       id="rect904-4-7" />
    <rect
       x="23.623512"
       y="86.178574"
       width="15.686012"
       height="13.229167"
       id="rect946" />
    <rect
       x="23.623512"
       y="86.178574"
       width="15.686012"
       height="13.229167"
       id="rect904-8" />
    <rect
       x="23.623512"
       y="86.178574"
       width="15.686012"
       height="13.229167"
       id="rect976" />
    <rect
       x="23.623512"
       y="86.178574"
       width="24.207069"
       height="17.041914"
       id="rect904-9" />
    <rect
       x="23.623512"
       y="86.178574"
       width="15.686012"
       height="13.229167"
       id="rect1005" />
    <rect
       x="23.623512"
       y="86.178574"
       width="15.686012"
       height="13.229167"
       id="rect904-9-7" />
    <rect
       x="23.623512"
       y="86.178574"
       width="15.686012"
       height="13.229167"
       id="rect1034" />
    <rect
       x="23.623512"
       y="86.178574"
       width="17.496736"
       height="14.209588"
       id="rect904-94" />
    <rect
       x="23.623512"
       y="86.178574"
       width="15.686012"
       height="13.229167"
       id="rect1064" />
    <rect
       x="23.623512"
       y="86.178574"
       width="15.686012"
       height="13.229167"
       id="rect904-94-2" />
    <rect
       x="23.623512"
       y="86.178574"
       width="15.686012"
       height="13.229167"
       id="rect1093" />
    <rect
       x="23.623512"
       y="86.178574"
       width="15.686012"
       height="13.229167"
       id="rect904-94-2-3" />
    <rect
       x="23.623512"
       y="86.178574"
       width="15.686012"
       height="13.229167"
       id="rect1122" />
    <rect
       x="23.623512"
       y="86.178574"
       width="15.686012"
       height="13.229167"
       id="rect904-94-2-6" />
    <rect
       x="23.623512"
       y="86.178574"
       width="15.686012"
       height="13.229167"
       id="rect1102" />
    <radialGradient
       inkscape:collect="always"
       xlink:href="#linearGradient974"
       id="radialGradient978"
       cx="255.9995"
       cy="256.00085"
       fx="255.9995"
       fy="256.00085"
       r="255.9995"
       gradientTransform="matrix(1,0,0,0.81940108,0,46.233476)"
       gradientUnits="userSpaceOnUse" />
  </defs>
  <sodipodi:namedview
     id="base"
     pagecolor="#ffffff"
     bordercolor="#666666"
     borderopacity="1.0"
     inkscape:pageopacity="0.0"
     inkscape:pageshadow="2"
     inkscape:zoom="0.69394897"
     inkscape:cx="-49.036114"
     inkscape:cy="273.22159"
     inkscape:document-units="mm"
     inkscape:current-layer="layer1"
     inkscape:document-rotation="0"
     showgrid="false"
     inkscape:window-width="1662"
     inkscape:window-height="1041"
     inkscape:window-x="281"
     inkscape:window-y="60"
     inkscape:window-maximized="0" />
  <metadata
     id="metadata5">
    <rdf:RDF>
      <cc:Work
         rdf:about="">
        <dc:format>image/svg+xml</dc:format>
        <dc:type
           rdf:resource="http://purl.org/dc/dcmitype/StillImage" />
        <dc:title />
      </cc:Work>
    </rdf:RDF>
  </metadata>
  <g
     inkscape:groupmode="layer"
     id="layer2"
     inkscape:label="レイヤー 2"
     sodipodi:insensitive="true">
    <g
       style="display:inline;opacity:1"
       id="g890"
       transform="matrix(0.18858495,0,0,0.18858495,2.5730154,1.9028118)">
      <g
         id="g878">
	<path
   class="st0"
   d="M 343.267,72.725 C 349.114,107.82 325.72,154.61 325.72,154.61 331.566,113.668 282.82,8.387 169.736,0.584 c 23.395,68.243 15.6,148.179 15.6,148.179 0,-40.942 -58.49,-81.892 -58.49,-81.892 0,0 -29.513,64.139 -70.192,116.988 -67.413,87.576 -80.043,230.722 -8.47,327.557 h 109.037 c -35.828,-28.624 -66.927,-137.694 6.62,-222.671 6.635,1.66 23.222,26.543 23.222,26.543 l 49.774,-97.887 c 0,0 64.715,61.385 68.029,106.184 l 36.502,-48.113 c 0,0 78.448,120.944 12.795,235.944 H 460.248 C 583.083,353.484 464.154,129.267 343.267,72.725 Z"
   style="fill:#e37300"
   id="path876" />

</g>
    </g>
  </g>
  <g
     inkscape:label="レイヤー 1"
     inkscape:groupmode="layer"
     id="layer1"
     style="display:inline">
    <text
       xml:space="preserve"
       id="text902-5"
       style="font-style:normal;font-variant:normal;font-weight:normal;font-stretch:normal;font-size:12.8687px;line-height:1.25;font-family:sans-serif;-inkscape-font-specification:'sans-serif, Normal';font-variant-ligatures:normal;font-variant-caps:normal;font-variant-numeric:normal;font-variant-east-asian:normal;white-space:pre;shape-inside:url(#rect904-9);fill:#000000;fill-opacity:1;stroke:none;"
       transform="matrix(1.7743161,0,0,1.7348602,-42.572745,-91.778884)" />
    <g
       style="opacity:1;fill:#0c0c6f;fill-opacity:1"
       id="g899"
       transform="matrix(0.21820778,0,0,0.21820778,2.6573099,20.794737)">
      <g
         id="g883"
         style="fill:#0c0c6f;fill-opacity:1">
        <path
           class="st0"
           d="m 165.683,106.525 c -0.183,0.094 -0.273,0.184 -0.363,0.367 -6.602,4.77 -8.16,14.031 -3.39,20.813 4.766,6.878 14.301,8.531 21.18,3.672 3.203,-2.29 5.406,-5.594 6.046,-9.262 0.918,-3.851 0.184,-8.25 -2.289,-11.922 -4.859,-6.879 -14.305,-8.523 -21.184,-3.668 z m 13.571,8.899 c -0.09,0.18 -0.367,0.367 -0.64,0.547 -2.294,1.652 -5.59,1.008 -7.242,-1.371 -1.008,-1.379 -1.191,-3.027 -0.641,-4.586 0.274,-1.101 0.918,-1.926 1.926,-2.66 2.379,-1.652 5.59,-1.102 7.242,1.282 1.558,2.112 1.191,5.045 -0.645,6.788 z"
           style="fill:#0c0c6f;fill-opacity:1"
           id="path873" />
        <path
           class="st0"
           d="m 221.434,173.737 c 1.102,-2.844 1.195,-4.035 1.285,-4.125 L 213,166.127 c 0,0 -0.641,1.649 -1.656,3.664 -0.91,2.114 -2.657,5.141 -4.95,8.531 -4.586,6.969 -12.102,15.219 -21.359,21.637 -2.386,1.562 -4.586,3.121 -6.973,4.406 -2.382,1.371 -4.766,2.66 -7.242,3.664 -4.77,2.11 -9.258,3.668 -13.386,4.586 -4.035,1.008 -7.43,1.649 -9.809,1.832 -2.386,0.184 -3.762,0.278 -3.762,0.278 l -0.274,10.27 c 0,0 6.598,1.008 16.23,-0.645 4.856,-0.824 10.45,-2.199 16.047,-4.586 2.84,-1.102 5.68,-2.473 8.434,-4.031 2.934,-1.469 5.774,-3.301 8.34,-4.953 10.546,-7.516 19.258,-17.606 23.934,-26.223 2.476,-4.219 3.942,-8.067 4.86,-10.82 z"
           style="fill:#0c0c6f;fill-opacity:1"
           id="path875" />
        <path
           class="st0"
           d="m 337.332,306.689 c 0,-0.274 -0.183,-0.55 -0.367,-0.734 l -5.41,-8.438 -5.133,-6.14 -0.918,-1.192 c -2.11,-2.476 -4.309,-4.402 -6.422,-6.695 -2.11,-2.199 -4.489,-4.214 -6.692,-6.234 -4.402,-4.125 -8.988,-7.699 -13.66,-11.461 -4.68,-3.394 -9.355,-7.062 -14.211,-10.176 -2.293,-1.558 -4.586,-3.117 -6.878,-4.496 -3.102,-2.008 -6.258,-3.766 -9.39,-5.679 -1.254,-0.766 -2.508,-1.528 -3.782,-2.286 -3.195,-1.914 -6.367,-3.977 -9.57,-5.789 -5.039,-2.84 -10.176,-5.5 -15.313,-8.156 l -7.882,-3.762 -4.129,-2.019 c -2.051,-0.855 -5.129,-1.77 -6.145,-2.187 -0.019,-0.024 -0.106,-0.051 -0.113,-0.074 l -0.004,0.027 c -0.035,-0.016 -0.126,-0.043 -0.153,-0.058 l -3.578,19.258 c 0.706,0.351 1.058,0.535 1.164,0.711 0.007,0.015 0.019,0.027 0.027,0.042 0.07,0.176 0,0.352 0,0.438 h 0.094 l 3.394,2.016 7.055,4.218 c 4.679,2.844 9.359,5.778 14.031,8.805 9.351,5.957 18.43,12.102 27.23,18.61 8.894,6.422 17.426,13.113 25.214,20.355 1.59,1.508 3.278,3.027 4.782,4.598 0.199,0.242 0.418,0.465 0.602,0.726 -1.614,0.09 -3.309,0.18 -4.922,0.18 -4.77,0.09 -9.441,0 -14.121,-0.183 -4.68,-0.274 -9.168,-0.641 -13.754,-1.192 -4.402,-0.644 -8.801,-1.469 -13.114,-2.476 -4.218,-1.188 -8.434,-2.57 -12.285,-4.309 -3.946,-1.653 -7.699,-3.668 -11.278,-6.145 -1.836,-1.102 -3.394,-2.477 -5.137,-3.762 -1.645,-1.371 -3.207,-2.93 -4.855,-4.398 l -14.582,13.207 c 3.578,4.305 7.426,8.34 12.012,11.824 4.312,3.574 9.168,6.691 14.214,9.262 5.043,2.75 10.266,4.586 15.586,6.422 5.226,1.554 10.542,2.835 15.859,3.847 5.23,0.824 10.55,1.558 15.863,2.016 5.23,0.367 10.453,0.457 15.68,0.55 7.523,0 15.039,-0.274 22.465,-0.641 2.75,-0.183 5.504,-0.277 8.254,-0.55 h 0.645 c 2.011,-0.278 3.938,-0.734 5.774,-1.926 0.55,-0.462 1.191,-0.829 1.648,-1.375 2.66,-2.477 3.946,-6.051 3.762,-9.629 -0.09,0 -0.09,-0.184 -0.09,-0.184 -0.182,-1.648 -0.549,-3.297 -1.467,-4.766 z"
           style="fill:#0c0c6f;fill-opacity:1"
           id="path877" />
        <path
           class="st0"
           d="m 379.875,354.826 c 2.566,0.094 5.41,0.461 8.16,1.102 11.278,2.199 20.906,8.985 33.742,15.863 12.652,6.875 26.957,10.086 38.328,9.992 11.461,0.094 21.183,-1.465 29.156,-3.941 7.977,-2.294 13.664,-5.598 17.332,-7.887 3.664,-2.293 5.406,-3.668 5.406,-3.668 l -5.32,-9.168 c 0,0 -1.829,0.828 -5.313,2.11 -3.578,1.187 -8.711,2.566 -15.317,3.301 -6.598,0.73 -15.034,0.367 -24.202,-1.012 -9.352,-1.558 -18.066,-4.949 -27.325,-11.277 -4.679,-3.114 -9.718,-7.426 -16.14,-11.645 -6.325,-4.218 -14.118,-8.344 -22.645,-10.91 -2.293,-0.734 -4.676,-1.374 -7.242,-1.832 0.824,-5.5 1.282,-9.718 1.469,-13.48 0.363,-4.582 0.363,-9.074 0.363,-13.848 -0.09,-4.586 -0.363,-9.442 -0.641,-13.934 -0.183,-1.465 -0.273,-2.84 -0.367,-4.214 -0.273,-2.754 -0.55,-5.414 -1.007,-8.715 l -0.278,-1.836 c -0.551,-3.847 -1.098,-7.699 -1.926,-11.278 -3.211,-17.328 -7.973,-34.382 -14.122,-50.613 -3.117,-8.89 -6.965,-17.602 -9.992,-24.203 -1.832,-3.942 -3.762,-7.793 -5.778,-11.649 l -1.102,-2.293 22.192,-29.062 0.644,-0.824 c 1.555,-2.016 2.477,-4.309 3.02,-7.062 1.195,-8.434 -4.672,-16.317 -13.02,-17.606 L 226.016,93.322 C 201.633,78.658 172.289,65.631 136.434,53.346 l -18.977,-6.418 c -3.301,-1.191 -6.973,-0.824 -9.992,0.918 -3.027,1.742 -5.23,4.679 -5.965,8.16 L 99.183,67.295 98.824,68.924 87.016,64.44 c -3.672,-1.371 -7.61,-1.004 -10.914,1.102 -3.203,2.015 -5.313,5.41 -5.68,9.262 l -2.019,23.473 c -4.586,53.09 -5.961,102.234 24.664,164.675 -0.274,1.742 -0.457,3.485 -0.641,5.23 -1.008,10.817 -1.558,21.543 -1.558,31.997 -0.094,5.414 0.183,10.82 0.457,16.598 l 0.367,3.39 c 0.367,4.309 0.825,8.711 1.653,13.11 l 0.183,1.382 c 0.367,2.469 0.734,4.95 1.375,7.242 l 0.55,2.106 c 0.458,2.289 1.008,4.402 1.742,6.602 l 0.793,2.386 0.102,0.379 c -0.82,0.453 -1.637,0.906 -2.453,1.27 -0.094,0.094 -0.184,0.183 -0.278,0.183 -5.042,2.293 -10.546,3.762 -15.402,4.676 -2.66,0.546 -6.148,0.641 -9.078,1.008 -1.832,0.094 -5.137,0.367 -7.52,0.273 -5.133,0.094 -9.812,-0.546 -14.214,-1.461 -8.707,-1.926 -16.043,-5.594 -22.555,-9.172 -6.511,-3.578 -12.102,-6.324 -16.23,-7.976 -4.031,-1.653 -5.957,-2.199 -5.957,-2.199 L 0,349.6 c 0,0 0.457,0.274 1.285,0.824 0.918,0.551 2.383,1.286 3.758,2.387 3.027,1.832 7.336,5.41 13.207,9.992 5.863,4.586 13.93,11 25.214,15.039 5.496,2.015 11.641,3.758 18.152,4.586 3.391,0.543 6.051,0.734 10.266,0.91 3.21,0 5.965,0.281 9.633,0 7.882,-0.454 15.496,-1.645 23.289,-4.305 2.844,-1.008 5.594,-2.11 8.25,-3.394 1.102,-0.551 2.294,-1.102 3.395,-1.649 3.484,-1.746 6.878,-3.668 9.992,-5.594 0.918,-0.55 1.742,-1.102 2.566,-1.558 3.945,-2.477 7.609,-4.496 11.187,-6.145 4.676,-2.106 9.258,-3.664 14.122,-4.582 0.457,-0.09 0.918,-0.184 1.374,-0.184 2.11,-0.461 4.313,-0.641 6.606,-0.824 3.114,-0.094 7.058,-0.278 9.809,-0.094 l 6.05,0.457 4.402,0.734 c 6.047,1.195 12.012,3.39 17.692,6.785 0.734,0.458 1.468,0.825 2.293,1.286 0,0.09 0.094,0.09 0.183,0.09 1.012,0.641 2.02,1.286 3.122,2.019 4.492,2.934 9.441,6.414 15.402,9.993 8.433,5.137 18.886,9.258 29.16,11.183 5.039,0.734 10.175,1.562 15.125,1.653 l 3.762,0.094 0.457,0.09 1.192,-0.09 h 0.828 l 1.558,-0.094 6.414,-0.367 c 11.285,-1.008 21.183,-3.668 30.718,-8.161 9.262,-4.398 16.778,-9.898 23.016,-14.027 0.09,0 0.09,-0.09 0.183,-0.09 0.734,-0.461 1.375,-0.918 2.016,-1.285 5.32,-3.578 10.086,-5.958 15.222,-7.7 2.934,-0.828 5.867,-1.652 9.074,-2.019 2.754,-0.734 7.156,-0.641 8.988,-1.008 l 5.778,0.09 h 2.843 l 2.016,0.183 h 0.276 z m -18.688,-54.863 c -6.949,-21.742 -15.171,-42.203 -23.031,-59.656 l 15.039,3.297 c 1.836,6.606 3.297,13.39 4.582,20.172 0.824,3.855 1.285,7.703 1.836,11.648 0.55,3.207 0.824,8.066 1.191,12.008 0.183,3.946 0.367,7.523 0.457,11.371 0,0.309 0,0.617 0,0.926 -0.019,0.078 -0.039,0.156 -0.074,0.234 z m -18.449,25.156 c -0.367,0.547 -0.824,1.008 -1.278,1.465 -5.871,1.469 -11.558,3.762 -16.781,6.418 -0.734,0.457 -1.469,0.824 -2.11,1.191 -0.734,0.367 -1.469,0.832 -2.203,1.195 -1.742,0.914 -3.394,1.832 -4.953,2.84 -7.516,4.77 -13.473,8.898 -19.344,11.461 -5.687,2.57 -12.379,4.039 -17.973,4.586 l -6.324,0.277 h -2.57 l -2.383,-0.094 c -3.578,0 -6.874,-0.457 -10.175,-0.824 -6.508,-1.191 -12.106,-3.301 -18.246,-6.782 -6.145,-3.394 -13.117,-8.714 -21.918,-13.484 -8.891,-4.676 -18.977,-7.977 -29.066,-9.352 l -7.794,-0.734 -6.144,-0.183 c -2.379,-0.09 -4.672,0 -6.782,0.094 l -3.305,-4.125 c -4.855,-6.145 -9.718,-12.653 -14.484,-19.531 l -1.008,-1.469 c -11.648,-16.684 -20.816,-32.09 -28.058,-46.762 -1.832,-3.668 -3.574,-7.246 -5.137,-10.817 C 92.515,189.966 93.432,148.887 97.468,100.845 l 0.172,-1.055 0.015,-0.046 15.489,5.863 c 3.851,1.469 8.074,-0.825 8.898,-4.856 l 2.473,-12.062 0.586,-2.683 c 3.114,1.465 7.41,3.473 12.801,6.035 3.789,1.89 8.222,4.137 12.926,6.687 0.527,0.305 1.008,0.543 1.543,0.859 -8.782,9.902 -10.058,24.922 -2.09,36.282 9.262,13.203 27.691,16.504 40.984,7.148 4.543,-3.175 7.906,-7.441 9.934,-12.156 0.019,-0.043 0.054,-0.078 0.074,-0.121 8.617,6.507 17.965,14.301 24.375,21.996 7.43,10.274 6.148,29.801 13.851,41.906 4.855,6.969 15.492,22.374 27.32,39.976 7.43,4.496 14.856,9.172 22.192,13.938 4.214,2.844 8.16,5.871 12.102,8.707 l 2.839,2.114 2.57,2.199 c 3.852,3.027 7.797,6.144 11.461,9.629 l 1.375,1.191 c 0.824,0.734 1.558,1.375 2.293,2.11 1.102,1.007 2.294,2.109 3.395,3.301 0.64,0.734 1.281,1.374 2.015,2.109 0.461,0.462 0.914,0.918 1.371,1.375 1.199,1.102 2.293,2.199 3.305,3.574 l 6.234,7.43 0.461,0.734 5.406,8.34 c 4.865,7.524 4.131,17.148 -1.1,23.75 z M 194.386,125.693 c -1.469,4.121 -4.129,7.883 -7.886,10.543 -9.539,6.781 -22.832,4.398 -29.434,-5.137 -6.05,-8.618 -4.77,-20.352 2.754,-27.418 0.727,-0.726 1.555,-1.374 2.477,-2.011 2.656,-1.926 5.774,-3.118 8.89,-3.578 7.699,-1.191 15.774,2.02 20.539,8.711 0.274,0.457 0.551,0.918 0.824,1.465 3.212,5.413 3.763,11.828 1.836,17.425 z m 142.649,71.297 c 0.058,0.25 0.18,0.465 0.211,0.754 l -22.566,-4.938 c -3.387,-6.051 -5.497,-9.626 -5.958,-10.27 l -0.367,-0.73 -4.675,-6.695 c -1.469,-2.11 -2.934,-4.309 -4.493,-6.418 -1.191,-1.832 -2.566,-3.758 -3.941,-5.59 l 29.25,6.414 c 0.09,1.375 0.551,2.934 1.286,4.313 l 0.273,0.274 c 1.653,3.21 3.578,6.875 5.317,10.359 1.742,3.668 3.39,7.34 5.043,10.91 0.249,0.563 0.429,1.086 0.62,1.617 z m 13.598,37.523 -16.695,-3.652 c -0.551,-1.102 -1.008,-2.293 -1.649,-3.301 -0.094,-0.183 -0.277,-0.461 -0.367,-0.824 -4.398,-9.352 -8.621,-17.61 -12.105,-24.39 l 21.363,4.679 c 1.469,3.57 2.75,7.149 4.035,10.726 1.808,5.004 3.414,9.962 4.926,15.016 0.152,0.579 0.351,1.169 0.492,1.746 z m -5.656,-96.1 -18.098,22.855 c -0.09,0 -0.184,0.183 -0.184,0.274 l -38.969,-8.438 c -7.703,-9.902 -16.687,-19.801 -27.875,-29.703 l 57.555,10.098 z m -221.86,196.882 c -0.71,-2.094 -0.992,-4.519 -1.347,-6.691 -1.746,-9.258 -2.386,-18.985 -2.844,-28.793 v -0.458 c 3.02,4.77 6.23,9.539 9.719,14.394 1.832,2.57 3.574,5.137 5.41,7.61 -1.836,2.703 -3.824,5.398 -5.863,8.082 -1.559,1.922 -3.184,3.852 -5.075,5.856 z"
           style="fill:#0c0c6f;fill-opacity:1"
           id="path879" />
        <path
           class="st0"
           d="m 254.016,426.62939 c -1.063,0.035 -2.157,0.168 -3.165,0.122 -4.129,-0.008 -7.843,-0.391 -11.258,-1.246 -6.722,-1.722 -12.938,-5.378 -17.875,-7.351 -2.359,-1.008 -4.683,-1.727 -5.926,-2.043 -1.305,-0.324 -1.996,-0.5 -1.996,-0.5 l -2.77,6.012 c 0,0 0.582,0.418 1.68,1.203 1.141,0.793 2.246,1.882 4.11,3.41 1.793,1.535 3.882,3.555 6.664,5.852 2.746,2.305 6.246,5.007 10.726,7.179 4.434,2.25 9.73,3.934 15.254,4.657 1.39,0.262 2.762,0.32 4.176,0.476 l 1.058,0.098 c 0.352,0.012 -0.039,0.043 0.926,0.039 l 0.473,0.016 1.898,0.062 c 1.363,0.015 2.359,0.148 4.051,-0.02 1.64,-0.16 3.297,-0.316 4.965,-0.476 6.277,-0.922 13.074,-3.074 18.594,-6.391 5.535,-3.226 9.898,-6.398 13.898,-8.367 3.906,-2.144 7.82,-3.374 12.344,-3.906 2.14,-0.219 4.766,-0.477 6.672,-0.524 l 4,0.012 2.878,0.242 c 4.07,0.542 7.926,1.461 11.672,3.16 3.734,1.699 7.68,3.977 11.832,6.008 4.114,2.07 8.41,3.672 12.285,4.398 3.84,0.878 7.246,1.004 9.946,0.942 2.722,0.094 4.789,-0.395 6.195,-0.532 1.394,-0.191 2.141,-0.297 2.141,-0.297 v -6.617 c 0,0 -0.66,-0.16 -1.902,-0.465 -1.226,-0.309 -3.046,-0.695 -5.195,-1.43 -2.184,-0.629 -4.691,-1.641 -7.34,-2.981 -2.687,-1.297 -5.34,-3.23 -8.422,-5.566 -3.062,-2.359 -6.512,-5.515 -11.25,-8.492 -4.691,-3.027 -10.511,-5.715 -16.855,-6.957 -1.668,-0.27 -3.344,-0.547 -5.031,-0.825 l -4.082,-0.371 c -3.515,-0.258 -6.406,-0.195 -9.77,0.11 -6.507,0.527 -13.613,2.481 -19.656,5.61 -6.023,3.203 -10.656,6.898 -14.66,9.316 -4.004,2.367 -7.558,4.114 -11.676,5.09 l -2.808,0.566 c -0.879,0.222 -2.458,0.262 -3.63,0.445 l -1.886,0.219 -0.469,0.058 c 0.649,-0.012 -0.05,0.008 -0.012,0.012 z"
           style="fill:#0c0c6f;fill-opacity:1"
           id="path881" />
      </g>
    </g>
    <g
       style="opacity:1"
       id="g953"
       transform="matrix(0.26458333,0,0,0.26458333,69.202537,112.93737)">
      <g
         id="g937" />
    </g>
    <path
       style="fill:#e9f3fe;fill-opacity:1;stroke:none;stroke-width:8.39244;stroke-linecap:round;stroke-linejoin:round;stroke-miterlimit:4;stroke-dasharray:none;stroke-opacity:0.327434"
       d="m 57.343155,97.415984 c -0.646659,-0.208736 -2.808204,-1.36239 -4.803441,-2.563683 -4.206189,-2.532462 -7.376316,-3.581594 -10.822384,-3.581594 -2.412283,0 -2.475955,-0.03285 -4.023445,-2.07421 C 30.418484,79.599087 25.959621,70.335159 24.450565,61.6816 23.806591,57.988777 23.556738,46.760793 24.06229,44.233043 l 0.259163,-1.295817 1.844836,0.663399 c 2.49066,0.895636 3.191172,0.532112 3.546994,-1.840685 l 0.294508,-1.963916 2.728413,1.345441 2.728411,1.34544 -0.641554,1.286025 c -0.423212,0.848347 -0.574746,2.091631 -0.445252,3.653133 0.210392,2.537047 1.226627,4.064498 3.486444,5.240279 2.497517,1.299455 6.449006,0.421159 8.060969,-1.791708 l 0.876334,-1.203015 2.695466,2.568306 c 2.600508,2.477829 2.731076,2.70793 3.706352,6.531625 0.874266,3.427678 1.443504,4.593125 4.211932,8.623398 2.989619,4.352283 3.488884,4.851699 7.558944,7.561252 7.885324,5.249473 12.976742,10.820604 12.976742,14.199398 0,1.944915 -0.130798,2.071296 -4.366761,4.219248 -1.801292,0.913385 -4.249425,2.228834 -5.440304,2.92322 -1.857559,1.08312 -2.695233,1.27921 -5.895128,1.379975 -2.051448,0.06461 -4.258986,-0.05332 -4.905644,-0.262057 z m 16.621752,-5.678707 c 2.12166,-0.409816 2.659499,-0.971878 2.669371,-2.78961 0.01431,-2.636138 -5.173048,-8.138846 -11.99724,-12.72656 -4.179998,-2.810098 -12.317942,-7.197513 -13.376213,-7.211521 -0.523891,-0.007 -0.784981,0.571489 -1.004328,2.224987 -0.163018,1.228897 -0.237458,2.286434 -0.165423,2.350085 0.07203,0.06365 1.506502,0.947496 3.187705,1.964101 3.663315,2.215168 10.673635,7.219225 13.100291,9.351153 1.680718,1.476592 1.705029,1.535185 0.643562,1.550956 -2.4933,0.03707 -8.494285,-0.947366 -10.617369,-1.74171 -1.249489,-0.467495 -2.950066,-1.416234 -3.779057,-2.108306 l -1.507262,-1.258318 -1.64931,1.325421 c -0.907121,0.728985 -1.649311,1.571978 -1.649311,1.873326 0,0.913949 3.550147,3.710635 6.33181,4.987981 2.326679,1.068419 5.165743,1.847422 8.515187,2.336469 2.159623,0.31532 9.427963,0.232678 11.297587,-0.128454 z M 41.044166,68.949839 c 4.285506,-1.634202 8.622483,-5.80322 9.869772,-9.487538 0.519806,-1.535441 0.309326,-1.984656 -1.132851,-2.417743 -0.688351,-0.206715 -1.011889,0.04169 -1.500123,1.15178 -0.921999,2.096325 -5.146508,6.098626 -7.850679,7.437732 -1.302544,0.645023 -3.316715,1.298584 -4.475932,1.452363 -2.062616,0.273613 -2.107672,0.312131 -2.107672,1.802015 v 1.522423 l 2.503212,-0.312754 c 1.37677,-0.172016 3.489189,-0.688741 4.694273,-1.148278 z"
       id="path3004" />
    <path
       style="fill:#ffffff;fill-opacity:1;stroke:none;stroke-width:2.09811;stroke-linecap:round;stroke-linejoin:round;stroke-miterlimit:4;stroke-dasharray:none;stroke-opacity:0.327434"
       d="M 39.553972,51.155259 C 38.258965,50.79813 37.18459,49.87698 36.583756,48.608647 c -0.322282,-0.680319 -0.347702,-0.817949 -0.347702,-1.882552 0,-1.080678 0.02146,-1.192186 0.363233,-1.8864 0.460442,-0.93529 1.230007,-1.706949 2.157868,-2.163733 0.610498,-0.300547 0.87813,-0.364807 1.678792,-0.403086 1.195491,-0.05716 1.931878,0.142425 2.854132,0.773554 2.238097,1.531604 2.595421,4.682033 0.765448,6.748746 -1.077556,1.216963 -2.959108,1.785445 -4.501555,1.360083 z m 2.336149,-1.261836 c 2.115462,-0.791497 2.837056,-3.444431 1.43598,-5.279365 -0.562549,-0.736747 -1.585647,-1.210293 -2.605661,-1.206035 -1.270874,0.0054 -2.45303,0.723923 -3.037695,1.846586 -0.316139,0.60703 -0.388506,1.916409 -0.146238,2.645813 0.570859,1.718698 2.601819,2.648432 4.353614,1.993001 z"
       id="path3006" />
    <path
       style="fill:#ffffff;fill-opacity:1;stroke:none;stroke-width:2.09811;stroke-linecap:round;stroke-linejoin:round;stroke-miterlimit:4;stroke-dasharray:none;stroke-opacity:0.327434"
       d="m 40.57646,46.128455 c -1.054361,-0.455635 -0.738036,-2.020123 0.408449,-2.020123 0.765697,0 1.266906,0.732632 0.978143,1.429774 -0.238896,0.57674 -0.83288,0.829633 -1.386592,0.590349 z"
       id="path3008" />
    <path
       style="fill:#e9f3fe;fill-opacity:1;stroke:none;stroke-width:2.09811;stroke-linecap:round;stroke-linejoin:round;stroke-miterlimit:4;stroke-dasharray:none;stroke-opacity:0.327434"
       d="m 69.703993,55.069571 c -2.307471,-0.502356 -4.229331,-0.951188 -4.270804,-0.997404 -0.04147,-0.04623 -0.585051,-0.698109 -1.207946,-1.448644 -0.622897,-0.750538 -1.910721,-2.140344 -2.861837,-3.088457 -1.138573,-1.134978 -1.6422,-1.703891 -1.474314,-1.665437 0.140245,0.03213 3.055181,0.547148 6.477627,1.144502 7.801075,1.361601 11.343763,1.993206 11.388187,2.030332 0.0273,0.0228 -3.531223,4.594397 -3.790045,4.869015 -0.03602,0.0382 -1.9534,-0.341551 -4.260868,-0.843907 z"
       id="path3010" />
    <path
       style="fill:#e9f3fe;fill-opacity:1;stroke:none;stroke-width:2.09811;stroke-linecap:round;stroke-linejoin:round;stroke-miterlimit:4;stroke-dasharray:none;stroke-opacity:0.327434"
       d="m 73.688963,63.337142 -2.284636,-0.510258 -0.885142,-1.471808 c -0.486828,-0.809496 -1.405163,-2.208701 -2.040743,-3.109347 -0.635581,-0.900645 -1.138004,-1.65738 -1.116498,-1.681635 0.02152,-0.02425 1.372435,0.245172 3.002057,0.59872 2.791675,0.605656 2.969344,0.65869 3.073583,0.917449 0.06086,0.151051 0.442621,0.937838 0.848381,1.748417 0.729268,1.456852 1.851391,3.870117 1.851391,3.981654 0,0.07747 0.12741,0.102099 -2.448393,-0.473192 z"
       id="path3012" />
    <path
       style="fill:#e9f3fe;fill-opacity:1;stroke:none;stroke-width:2.09811;stroke-linecap:round;stroke-linejoin:round;stroke-miterlimit:4;stroke-dasharray:none;stroke-opacity:0.327434"
       d="m 77.140685,71.472629 -1.562145,-0.346976 -1.468273,-2.99106 c -0.807553,-1.645083 -1.450635,-3.008702 -1.429073,-3.030264 0.02156,-0.02156 1.015707,0.175183 2.209212,0.437217 l 2.170006,0.476423 0.251983,0.644396 c 0.314219,0.803555 1.370335,3.860213 1.59412,4.613783 0.202198,0.680872 0.343969,0.665099 -1.76583,0.196481 z"
       id="path3014" />
    <path
       style="fill:#e9f3fe;fill-opacity:1;stroke:none;stroke-width:2.09811;stroke-linecap:round;stroke-linejoin:round;stroke-miterlimit:4;stroke-dasharray:none;stroke-opacity:0.327434"
       d="m 81.113342,84.964865 c -0.628051,-2.023488 -2.892456,-7.897061 -4.02986,-10.452941 -0.267201,-0.600431 -0.44922,-1.105663 -0.404491,-1.122738 0.08636,-0.03296 2.945082,0.585004 3.00045,0.648614 0.183742,0.211105 1.175979,5.16734 1.42811,7.133437 0.170406,1.328803 0.346856,4.42135 0.25227,4.42135 -0.02839,0 -0.139321,-0.282477 -0.246479,-0.627722 z"
       id="path3016" />
    <path
       style="fill:#e9f3fe;fill-opacity:1;stroke:none;stroke-width:2.09811;stroke-linecap:round;stroke-linejoin:round;stroke-miterlimit:4;stroke-dasharray:none;stroke-opacity:0.327434"
       d="m 29.473954,93.546892 c -0.03219,-0.141836 -0.155166,-0.847397 -0.273298,-1.567912 -0.190638,-1.162742 -0.263093,-1.869961 -0.503303,-4.91261 l -0.06033,-0.764184 0.404351,0.600429 c 0.222391,0.330238 0.941752,1.377737 1.598577,2.327783 l 1.194227,1.72735 -0.925914,1.220213 c -0.509253,0.671118 -1.027136,1.311699 -1.150856,1.423515 -0.220755,0.199519 -0.226029,0.198501 -0.283452,-0.05458 z"
       id="path3018" />
  </g>
  <style
     type="text/css"
     id="style871">
	.st0{fill:#374149;}
</style>
  <style
     type="text/css"
     id="style901">
	.st0{fill:#374149;}
</style>
  <style
     type="text/css"
     id="style925">
	.st0{fill:#374149;}
</style>
  <style
     type="text/css"
     id="style874">
	.st0{fill:#4B4B4B;}
</style>
</svg>
