<?xml version="1.0" encoding="UTF-8" standalone="no"?>
<svg
   xmlns:dc="http://purl.org/dc/elements/1.1/"
   xmlns:cc="http://creativecommons.org/ns#"
   xmlns:rdf="http://www.w3.org/1999/02/22-rdf-syntax-ns#"
   xmlns:svg="http://www.w3.org/2000/svg"
   xmlns="http://www.w3.org/2000/svg"
   xmlns:xlink="http://www.w3.org/1999/xlink"
   xmlns:sodipodi="http://sodipodi.sourceforge.net/DTD/sodipodi-0.dtd"
   xmlns:inkscape="http://www.inkscape.org/namespaces/inkscape"
   width="100mm"
   height="100mm"
   viewBox="0 0 100 100"
   version="1.1"
   id="svg8"
   inkscape:version="1.0.1 (3bc2e813f5, 2020-09-07)"
   sodipodi:docname="ParamFishEgg.svg"
   inkscape:export-filename="C:\Users\hiroa\Desktop\ParamFishEggIcon.png"
   inkscape:export-xdpi="6.1999998"
   inkscape:export-ydpi="6.1999998">
  <defs
     id="defs2">
    <linearGradient
       inkscape:collect="always"
       id="linearGradient974">
      <stop
         style="stop-color:#4b4b4b;stop-opacity:1;"
         offset="0"
         id="stop970" />
      <stop
         style="stop-color:#4b4b4b;stop-opacity:0;"
         offset="1"
         id="stop972" />
    </linearGradient>
    <rect
       x="23.623512"
       y="86.178572"
       width="23.035423"
       height="17.804464"
       id="rect904" />
    <rect
       x="23.623512"
       y="86.178574"
       width="15.686012"
       height="13.229167"
       id="rect904-4" />
    <rect
       x="23.623512"
       y="86.178574"
       width="15.686012"
       height="13.229167"
       id="rect917" />
    <rect
       x="23.623512"
       y="86.178574"
       width="15.686012"
       height="13.229167"
       id="rect904-4-7" />
    <rect
       x="23.623512"
       y="86.178574"
       width="15.686012"
       height="13.229167"
       id="rect946" />
    <rect
       x="23.623512"
       y="86.178574"
       width="15.686012"
       height="13.229167"
       id="rect904-8" />
    <rect
       x="23.623512"
       y="86.178574"
       width="15.686012"
       height="13.229167"
       id="rect976" />
    <rect
       x="23.623512"
       y="86.178574"
       width="24.207069"
       height="17.041914"
       id="rect904-9" />
    <rect
       x="23.623512"
       y="86.178574"
       width="15.686012"
       height="13.229167"
       id="rect1005" />
    <rect
       x="23.623512"
       y="86.178574"
       width="15.686012"
       height="13.229167"
       id="rect904-9-7" />
    <rect
       x="23.623512"
       y="86.178574"
       width="15.686012"
       height="13.229167"
       id="rect1034" />
    <rect
       x="23.623512"
       y="86.178574"
       width="17.496736"
       height="14.209588"
       id="rect904-94" />
    <rect
       x="23.623512"
       y="86.178574"
       width="15.686012"
       height="13.229167"
       id="rect1064" />
    <rect
       x="23.623512"
       y="86.178574"
       width="15.686012"
       height="13.229167"
       id="rect904-94-2" />
    <rect
       x="23.623512"
       y="86.178574"
       width="15.686012"
       height="13.229167"
       id="rect1093" />
    <rect
       x="23.623512"
       y="86.178574"
       width="15.686012"
       height="13.229167"
       id="rect904-94-2-3" />
    <rect
       x="23.623512"
       y="86.178574"
       width="15.686012"
       height="13.229167"
       id="rect1122" />
    <rect
       x="23.623512"
       y="86.178574"
       width="15.686012"
       height="13.229167"
       id="rect904-94-2-6" />
    <rect
       x="23.623512"
       y="86.178574"
       width="15.686012"
       height="13.229167"
       id="rect1102" />
    <radialGradient
       inkscape:collect="always"
       xlink:href="#linearGradient974"
       id="radialGradient978"
       cx="255.9995"
       cy="256.00085"
       fx="255.9995"
       fy="256.00085"
       r="255.9995"
       gradientTransform="matrix(1,0,0,0.81940108,0,46.233476)"
       gradientUnits="userSpaceOnUse" />
  </defs>
  <sodipodi:namedview
     id="base"
     pagecolor="#ffffff"
     bordercolor="#666666"
     borderopacity="1.0"
     inkscape:pageopacity="0.0"
     inkscape:pageshadow="2"
     inkscape:zoom="1.3878979"
     inkscape:cx="0.68279207"
     inkscape:cy="37.712937"
     inkscape:document-units="mm"
     inkscape:current-layer="g968"
     inkscape:document-rotation="0"
     showgrid="false"
     inkscape:window-width="1767"
     inkscape:window-height="1228"
     inkscape:window-x="816"
     inkscape:window-y="383"
     inkscape:window-maximized="0" />
  <metadata
     id="metadata5">
    <rdf:RDF>
      <cc:Work
         rdf:about="">
        <dc:format>image/svg+xml</dc:format>
        <dc:type
           rdf:resource="http://purl.org/dc/dcmitype/StillImage" />
        <dc:title />
      </cc:Work>
    </rdf:RDF>
  </metadata>
  <g
     inkscape:groupmode="layer"
     id="layer2"
     inkscape:label="レイヤー 2"
     style="display:inline">
    <path
       sodipodi:type="star"
       style="fill:#000000;fill-opacity:1;stroke-width:0.752772;stroke-linecap:round;stroke-linejoin:round"
       id="path889"
       sodipodi:sides="6"
       sodipodi:cx="50.118706"
       sodipodi:cy="49.685371"
       sodipodi:r1="49.569305"
       sodipodi:r2="42.928276"
       sodipodi:arg1="1.0471976"
       sodipodi:arg2="1.5707963"
       inkscape:flatsided="true"
       inkscape:rounded="-3.46945e-18"
       inkscape:randomized="0"
       d="m 74.903356,92.61365 -49.569305,-2e-6 L 0.54940033,49.685369 25.334055,6.7570924 l 49.569306,2.5e-6 24.78465,42.9282791 z"
       transform="matrix(0.90210069,0,0,0.8659283,4.9065866,6.6614019)" />
    <path
       style="fill:#ffffff;fill-opacity:1;stroke:#ffffff;stroke-width:2.08949;stroke-linecap:round;stroke-linejoin:round;stroke-opacity:1"
       d=""
       id="path987"
       transform="scale(0.26458333)" />
    <path
       style="fill:#ffffff;fill-opacity:1;stroke:#ffffff;stroke-width:2.08949;stroke-linecap:round;stroke-linejoin:round;stroke-opacity:1"
       d=""
       id="path991"
       transform="scale(0.26458333)" />
  </g>
  <g
     inkscape:label="レイヤー 1"
     inkscape:groupmode="layer"
     id="layer1"
     style="display:inline">
    <text
       xml:space="preserve"
       id="text902-5"
       style="font-style:normal;font-variant:normal;font-weight:normal;font-stretch:normal;font-size:12.8687px;line-height:1.25;font-family:sans-serif;-inkscape-font-specification:'sans-serif, Normal';font-variant-ligatures:normal;font-variant-caps:normal;font-variant-numeric:normal;font-variant-east-asian:normal;white-space:pre;shape-inside:url(#rect904-9);fill:#000000;fill-opacity:1;stroke:none;"
       transform="matrix(1.7743161,0,0,1.7348602,-42.572745,-91.778884)" />
    <g
       style="opacity:1"
       id="g953"
       transform="matrix(0.26458333,0,0,0.26458333,69.202537,112.93737)">
      <g
         id="g937" />
    </g>
    <g
       style="display:inline;opacity:1;fill:#ffffff;fill-opacity:1;stroke:#000000;stroke-opacity:1"
       id="g886"
       transform="matrix(0.26458333,0,0,0.26458333,-5.9949742,36.264795)">
      <g
         style="opacity:1;fill:#ffffff;fill-opacity:1"
         id="g913"
         transform="matrix(0.46909527,0,0,0.46909527,44.509772,-88.165434)">
        <g
           id="g892"
           transform="translate(109.46562,19.812208)"
           style="fill:#ffffff;fill-opacity:1">
	
	
	
	
	
	
	
	
	
	
<g
   id="g968"
   style="fill:#ffffff;fill-opacity:1">
  <rect
     x="230.47986"
     y="26.804588"
     class="st0"
     width="23.903999"
     height="57.382"
     style="fill:#ffffff;fill-opacity:1"
     id="rect874" />
  <polygon
     class="st0"
     points="138.366,60.015 117.652,71.967 146.348,121.669 167.052,109.717 "
     style="fill:#ffffff;fill-opacity:1"
     id="polygon876"
     transform="translate(-13.576144,-4.8874119)" />
  <polygon
     class="st0"
     points="40.285,149.344 28.333,170.04 78.026,198.744 89.978,178.04 "
     style="fill:#ffffff;fill-opacity:1"
     id="polygon878"
     transform="translate(-13.576144,-4.8874119)" />
  <polygon
     class="st0"
     points="471.724,426.049 483.685,405.335 433.983,376.641 422.022,397.345 "
     style="fill:#ffffff;fill-opacity:1"
     id="polygon880"
     transform="translate(-13.576144,-4.8874119)" />
  <polygon
     class="st0"
     points="0.018,275.74 0,299.644 57.4,299.644 57.4,275.74 "
     style="fill:#ffffff;fill-opacity:1"
     id="polygon882"
     transform="translate(-13.576144,-4.8874119)" />
  <polygon
     class="st0"
     points="454.609,299.644 512,299.653 512,275.74 454.609,275.74 "
     style="fill:#ffffff;fill-opacity:1"
     id="polygon884"
     transform="translate(-13.576144,-4.8874119)" />
  <polygon
     class="st0"
     points="40.285,426.04 89.987,397.353 78.026,376.641 28.333,405.345 "
     style="fill:#ffffff;fill-opacity:1"
     id="polygon886"
     transform="translate(-13.576144,-4.8874119)" />
  <polygon
     class="st0"
     points="471.716,149.344 422.031,178.04 433.974,198.752 483.685,170.057 "
     style="fill:#ffffff;fill-opacity:1"
     id="polygon888"
     transform="translate(-13.576144,-4.8874119)" />
  <polygon
     class="st0"
     points="365.67,121.687 394.365,71.985 373.643,60.024 344.966,109.726 "
     style="fill:#ffffff;fill-opacity:1"
     id="polygon890"
     transform="translate(-13.576144,-4.8874119)" />
  <path
     class="st0"
     d="m 240.80272,134.07568 c -70.103,0 -126.932,106.185 -126.932,200.737 0,94.562 56.828,141.694 126.932,141.694 70.104,0 126.932,-47.133 126.932,-141.694 0,-94.553 -56.827,-200.737 -126.932,-200.737 z m -54.371,131.212 c -8.78926,17.46439 -14.1826,39.24699 -14.157,59.216 0.009,7.33399 -7.02186,13.284 -13.284,13.284 -6.26214,0 -13.29181,-5.95 -13.284,-13.284 0.0262,-24.60501 6.29894,-49.78653 16.976,-71.133 3.28195,-6.56154 11.2779,-9.2008 17.833,-5.915 6.5559,3.2862 9.21774,11.27139 5.916,17.832 z m 29.248,-50.929 c -2.949,2.767 -5.838,6.339 -8.493,10.576 -3.9,6.21 -12.099,8.086 -18.308,4.186 -6.218,-3.9 -8.095,-12.099 -4.195,-18.317 3.676,-5.847 7.896,-11.182 12.774,-15.783 5.336,-5.034 13.743,-4.783 18.776,0.554 5.033,5.344 4.783,13.75 -0.554,18.784 z"
     style="fill:#ffffff;fill-opacity:1"
     id="path932"
     sodipodi:nodetypes="sssssssassssccccccc" />
  <path
     style="fill:#ffffff;fill-opacity:1;stroke:#000000;stroke-width:4.27829757;stroke-linecap:round;stroke-linejoin:round;stroke-miterlimit:4;stroke-dasharray:none;stroke-opacity:1"
     d="m 154.94292,335.80017 c -2.88608,-1.31105 -5.61395,-4.10458 -6.94383,-7.11099 -0.97895,-2.21309 -1.04623,-3.18777 -0.73122,-10.5955 0.82284,-19.35037 5.70034,-39.8367 13.90978,-58.42351 4.33967,-9.82538 7.39259,-12.61227 13.87002,-12.66152 6.89804,-0.0524 12.34766,5.28019 12.41867,12.15208 0.0258,2.49186 -0.43886,4.00441 -2.80403,9.1285 -7.18347,15.56294 -11.63653,33.72512 -12.40105,50.57882 -0.39678,8.7469 -0.85332,10.44086 -3.62856,13.46351 -3.95781,4.31066 -9.01531,5.59208 -13.68978,3.46861 z"
     id="path936" />
  <path
     style="fill:#ffffff;fill-opacity:1;stroke:#000000;stroke-width:4.27829757;stroke-linecap:round;stroke-linejoin:round;stroke-miterlimit:4;stroke-dasharray:none;stroke-opacity:1"
     d="m 192.64926,230.40859 c 0.48943,-0.30247 0.31441,-0.52388 -0.59436,-0.75198 -2.01936,-0.50682 -5.71313,-3.97642 -6.7604,-6.35012 -0.59563,-1.35006 -1.1002,-1.91747 -1.34823,-1.51617 -0.218,0.35272 -0.26918,-0.93056 -0.11384,-2.85174 0.48171,-5.95404 4.03788,-12.17917 11.53696,-20.19571 5.70057,-6.09392 11.22045,-7.80942 16.87683,-5.24506 3.26379,1.47966 4.78713,2.96435 6.25934,6.10054 0.67549,1.439 1.3409,2.29428 1.47866,1.90065 0.13771,-0.39365 0.2525,0.9949 0.255,3.08563 0.002,2.13756 -0.16393,3.32992 -0.38024,2.72426 -0.31504,-0.88185 -0.45134,-0.72218 -0.75211,0.88108 -0.24341,1.29754 -1.55964,3.35548 -3.90158,6.10021 -1.94382,2.27815 -3.35045,4.1421 -3.12582,4.1421 0.22462,0 -0.13878,0.38327 -0.8076,0.85173 -0.66882,0.46845 -1.07532,1.07937 -0.90335,1.35761 0.17203,0.27824 0.09,0.50589 -0.18227,0.50589 -0.27225,0 -1.67262,1.49893 -3.11193,3.33096 -3.10346,3.9502 -6.33304,5.63694 -11.62572,6.07182 -1.92118,0.15775 -3.18091,0.094 -2.79939,-0.14176 z"
     id="path954" />
</g>
</g>
      </g>
    </g>
  </g>
  <style
     type="text/css"
     id="style871">
	.st0{fill:#374149;}
</style>
  <style
     type="text/css"
     id="style901">
	.st0{fill:#374149;}
</style>
  <style
     type="text/css"
     id="style925">
	.st0{fill:#374149;}
</style>
  <style
     type="text/css"
     id="style1043">
	.st0{fill:#4B4B4B;}
</style>
  <style
     type="text/css"
     id="style867">
	.st0{fill:#4B4B4B;}
</style>
  <style
     type="text/css"
     id="style870">
	.st0{fill:#4B4B4B;}
</style>
</svg>
