<?xml version="1.0" encoding="UTF-8" standalone="no"?>
<svg
   xmlns:dc="http://purl.org/dc/elements/1.1/"
   xmlns:cc="http://creativecommons.org/ns#"
   xmlns:rdf="http://www.w3.org/1999/02/22-rdf-syntax-ns#"
   xmlns:svg="http://www.w3.org/2000/svg"
   xmlns="http://www.w3.org/2000/svg"
   xmlns:xlink="http://www.w3.org/1999/xlink"
   xmlns:sodipodi="http://sodipodi.sourceforge.net/DTD/sodipodi-0.dtd"
   xmlns:inkscape="http://www.inkscape.org/namespaces/inkscape"
   width="100mm"
   height="100mm"
   viewBox="0 0 100 100"
   version="1.1"
   id="svg8"
   inkscape:version="1.0.1 (3bc2e813f5, 2020-09-07)"
   sodipodi:docname="ParamFishAttributeIcon.svg"
   inkscape:export-filename="C:\Users\hiroa\Desktop\ParamFishAttributeIcon.png"
   inkscape:export-xdpi="6.1999998"
   inkscape:export-ydpi="6.1999998">
  <defs
     id="defs2"><linearGradient
   inkscape:collect="always"
   id="linearGradient974">
  <stop
     style="stop-color:#4b4b4b;stop-opacity:1;"
     offset="0"
     id="stop970" />
  <stop
     style="stop-color:#4b4b4b;stop-opacity:0;"
     offset="1"
     id="stop972" />
</linearGradient>
<rect
   x="23.623512"
   y="86.178572"
   width="23.035423"
   height="17.804464"
   id="rect904" />
<rect
   x="23.623512"
   y="86.178574"
   width="15.686012"
   height="13.229167"
   id="rect904-4" />
<rect
   x="23.623512"
   y="86.178574"
   width="15.686012"
   height="13.229167"
   id="rect917" />
<rect
   x="23.623512"
   y="86.178574"
   width="15.686012"
   height="13.229167"
   id="rect904-4-7" />
<rect
   x="23.623512"
   y="86.178574"
   width="15.686012"
   height="13.229167"
   id="rect946" />
<rect
   x="23.623512"
   y="86.178574"
   width="15.686012"
   height="13.229167"
   id="rect904-8" />
<rect
   x="23.623512"
   y="86.178574"
   width="15.686012"
   height="13.229167"
   id="rect976" />
<rect
   x="23.623512"
   y="86.178574"
   width="24.207069"
   height="17.041914"
   id="rect904-9" />
<rect
   x="23.623512"
   y="86.178574"
   width="15.686012"
   height="13.229167"
   id="rect1005" />
<rect
   x="23.623512"
   y="86.178574"
   width="15.686012"
   height="13.229167"
   id="rect904-9-7" />
<rect
   x="23.623512"
   y="86.178574"
   width="15.686012"
   height="13.229167"
   id="rect1034" />
<rect
   x="23.623512"
   y="86.178574"
   width="17.496736"
   height="14.209588"
   id="rect904-94" />
<rect
   x="23.623512"
   y="86.178574"
   width="15.686012"
   height="13.229167"
   id="rect1064" />
<rect
   x="23.623512"
   y="86.178574"
   width="15.686012"
   height="13.229167"
   id="rect904-94-2" />
<rect
   x="23.623512"
   y="86.178574"
   width="15.686012"
   height="13.229167"
   id="rect1093" />
<rect
   x="23.623512"
   y="86.178574"
   width="15.686012"
   height="13.229167"
   id="rect904-94-2-3" />
<rect
   x="23.623512"
   y="86.178574"
   width="15.686012"
   height="13.229167"
   id="rect1122" />
<rect
   x="23.623512"
   y="86.178574"
   width="15.686012"
   height="13.229167"
   id="rect904-94-2-6" />
<rect
   x="23.623512"
   y="86.178574"
   width="15.686012"
   height="13.229167"
   id="rect1102" />
<radialGradient
   inkscape:collect="always"
   xlink:href="#linearGradient974"
   id="radialGradient978"
   cx="255.9995"
   cy="256.00085"
   fx="255.9995"
   fy="256.00085"
   r="255.9995"
   gradientTransform="matrix(1,0,0,0.81940108,0,46.233476)"
   gradientUnits="userSpaceOnUse" />

	
	
</defs>
  <sodipodi:namedview
     id="base"
     pagecolor="#ffffff"
     bordercolor="#666666"
     borderopacity="1.0"
     inkscape:pageopacity="0.0"
     inkscape:pageshadow="2"
     inkscape:zoom="0.24534801"
     inkscape:cx="-1369.3946"
     inkscape:cy="-453.08073"
     inkscape:document-units="mm"
     inkscape:current-layer="g886"
     inkscape:document-rotation="0"
     showgrid="false"
     inkscape:window-width="1920"
     inkscape:window-height="1027"
     inkscape:window-x="-8"
     inkscape:window-y="-8"
     inkscape:window-maximized="1" />
  <metadata
     id="metadata5">
    <rdf:RDF>
      <cc:Work
         rdf:about="">
        <dc:format>image/svg+xml</dc:format>
        <dc:type
           rdf:resource="http://purl.org/dc/dcmitype/StillImage" />
        <dc:title />
      </cc:Work>
    </rdf:RDF>
  </metadata>
  <g
     inkscape:groupmode="layer"
     id="layer2"
     inkscape:label="レイヤー 2"
     style="display:inline">
    <path
       sodipodi:type="star"
       style="fill:#000000;fill-opacity:1;stroke-width:0.752772;stroke-linecap:round;stroke-linejoin:round"
       id="path889"
       sodipodi:sides="6"
       sodipodi:cx="50.118706"
       sodipodi:cy="49.685371"
       sodipodi:r1="49.569305"
       sodipodi:r2="42.928276"
       sodipodi:arg1="1.0471976"
       sodipodi:arg2="1.5707963"
       inkscape:flatsided="true"
       inkscape:rounded="-3.46945e-18"
       inkscape:randomized="0"
       d="m 74.903356,92.61365 -49.569305,-2e-6 L 0.54940033,49.685369 25.334055,6.7570924 l 49.569306,2.5e-6 24.78465,42.9282791 z"
       transform="matrix(0.90210069,0,0,0.8659283,4.9065866,6.6614019)" />
    <path
       style="fill:#ffffff;fill-opacity:1;stroke:#ffffff;stroke-width:2.08949;stroke-linecap:round;stroke-linejoin:round;stroke-opacity:1"
       d=""
       id="path987"
       transform="scale(0.26458333)" />
    <path
       style="fill:#ffffff;fill-opacity:1;stroke:#ffffff;stroke-width:2.08949;stroke-linecap:round;stroke-linejoin:round;stroke-opacity:1"
       d=""
       id="path991"
       transform="scale(0.26458333)" />
  </g>
  <g
     inkscape:label="レイヤー 1"
     inkscape:groupmode="layer"
     id="layer1"
     style="display:inline">
    <text
       xml:space="preserve"
       id="text902-5"
       style="font-style:normal;font-variant:normal;font-weight:normal;font-stretch:normal;font-size:12.8687px;line-height:1.25;font-family:sans-serif;-inkscape-font-specification:'sans-serif, Normal';font-variant-ligatures:normal;font-variant-caps:normal;font-variant-numeric:normal;font-variant-east-asian:normal;white-space:pre;shape-inside:url(#rect904-9);fill:#000000;fill-opacity:1;stroke:none;"
       transform="matrix(1.7743161,0,0,1.7348602,-42.572745,-91.778884)" />
    <g
       style="opacity:1"
       id="g953"
       transform="matrix(0.26458333,0,0,0.26458333,69.202537,112.93737)">
      <g
         id="g937" />
    </g>
    <g
       style="opacity:1"
       id="g1059"
       transform="matrix(0.11966714,0,0,0.11966714,17.882036,17.344324)">
      <g
         id="g1047">
        <path
           class="st0"
           d="m 515.6804,271.61732 c -0.055,-42.822 1.55307,-87.06432 -1.40293,-88.53732 -36.906,6.688 -55.308,54.699 -62.674,70.217 -1.613,3.398 -6.644,3.697 -16.246,-2.196 -6.07,-3.723 -56.638,-35.067 -117.067,-57.084 3.145,-8.144 8.876,-20.363 18.754,-33.984 -26.251,0.831 -45.629,14.778 -54.464,22.586 -10.629,-2.883 -21.348,-5.296 -32,-7.059 -40.667,-26.382 -54.31,-48.878 -55.345,-53.018 -30.739,13.223 -47.504,45.218 -53.131,57.907 -86.73,19.297 -134.6470001,67.137 -139.4140001,81.507 L 2.5748594,279.30788 7.8914699,290.01 c 0,0 33.7710001,56.48 140.8280001,72.414 28.154,24.538 52.367,27.033 52.367,27.033 l -3.86,-23.03 c 3.561,0.082 7.163,0.135 10.85,0.135 28.443,-0.036 57.578,-5.531 85.113,-13.557 28.606,13.223 76.458,13.376 70.674,8.568 -10.412,-5.396 -18.65,-13.983 -25.176,-24.422 51.952,-20.86 91.164,-45.516 96.708,-47.649 9.599,-5.93 14.624,-5.64 16.246,-2.233 7.402,15.492 25.917,63.467 62.842,70.056 2.957,-1.481 1.24593,-42.87568 1.19693,-85.70768 z"
           style="fill:#ffffff"
           id="path1045"
           sodipodi:nodetypes="ccsccccccccccccccccccccc"
           inkscape:export-filename="C:\Users\hiroa\Desktop\path1045.png"
           inkscape:export-xdpi="6.0959997"
           inkscape:export-ydpi="6.0959997" />
      </g>
    </g>
    <g
       style="opacity:1;stroke:#000000;stroke-opacity:1"
       id="g886"
       transform="matrix(0.26458333,0,0,0.26458333,-103.05099,40.915396)">
      <path
         class="st0"
         d="m 686.46663,58.962811 -17.05895,-2.480969 c -1.06865,-0.08164 -1.98955,-0.753426 -2.39884,-1.743613 L 661.47793,41.39225 c -0.41343,-0.986507 -0.24135,-2.116644 0.45882,-2.926973 l 10.20611,-13.710294 c 1.6211,-1.900074 1.51463,-4.732526 -0.25421,-6.50091 l -8.07657,-8.072925 c -1.76472,-1.7683843 -4.60177,-1.8831017 -6.4968,-0.2537375 L 643.60085,20.128917 c -0.80664,0.696519 -1.94459,0.876388 -2.92742,0.467095 l -13.34965,-5.534589 c -0.98698,-0.405155 -1.66194,-1.342577 -1.74819,-2.398836 l -2.47272,-17.0548182 c -0.19638,-2.4970374 -2.27587,-4.4209779 -4.77291,-4.4209779 h -11.42204 c -2.50071,0 -4.58065,1.9239405 -4.77291,4.4209779 l -2.48097,17.0548182 c -0.0781,1.064516 -0.75341,1.993681 -1.73993,2.398836 l -13.35378,5.534589 c -0.98697,0.409293 -2.11666,0.229424 -2.93111,-0.467095 L 567.92259,9.9274105 c -1.89501,-1.6252357 -4.72793,-1.5151059 -6.50045,0.2537375 l -8.07291,8.072925 c -1.76839,1.768384 -1.87486,4.601294 -0.2542,6.50091 l 10.20196,13.713975 c 0.69193,0.806648 0.8764,1.940454 0.46297,2.923292 l -5.53092,13.345979 c -0.40103,0.990646 -1.33432,1.661935 -2.39471,1.748199 l -17.06674,2.476843 c -2.48925,0.196842 -4.41318,2.276329 -4.41318,4.777495 v 11.417449 c 0,2.497036 1.9244,4.585239 4.41318,4.773366 l 17.06674,2.476841 c 1.06039,0.08622 1.99368,0.761223 2.39471,1.7482 l 5.53092,13.34597 c 0.41343,0.990648 0.22942,2.12444 -0.46297,2.931098 l -10.20196,13.71443 c -1.62111,1.89961 -1.51466,4.72381 0.2542,6.50092 l 8.07291,8.07292 c 1.77252,1.76838 4.60544,1.87484 6.50045,0.24961 l 13.70663,-10.2061 c 0.81445,-0.68735 1.94414,-0.87179 2.93111,-0.45792 l 13.35378,5.52634 c 0.98698,0.41386 1.66192,1.3389 1.74453,2.40709 l 2.47684,17.05482 c 0.19637,2.4929 2.27219,4.42143 4.77291,4.42143 h 11.42202 c 2.50118,0 4.57654,-1.92853 4.77291,-4.42143 l 2.47273,-17.05482 c 0.0861,-1.06819 0.76121,-1.99323 1.74818,-2.40709 l 13.35379,-5.52634 c 0.98284,-0.41387 2.12077,-0.22943 2.92696,0.45792 l 13.71076,10.2061 c 1.89503,1.62523 4.73253,1.51877 6.49679,-0.24961 l 8.07659,-8.07292 c 1.77297,-1.77711 1.87531,-4.60131 0.25419,-6.50092 l -10.20609,-13.71443 c -0.6878,-0.806658 -0.87181,-1.94045 -0.45883,-2.931098 l 5.53092,-13.34597 c 0.40927,-0.986977 1.33019,-1.661936 2.39882,-1.7482 l 17.05896,-2.476841 c 2.49337,-0.188127 4.4173,-2.27633 4.4173,-4.773366 V 63.740766 c -4.5e-4,-2.501626 -1.9244,-4.581112 -4.41776,-4.777955 z M 631.38411,88.2174 c -5.01517,5.006913 -11.67533,7.76641 -18.76586,7.76641 -7.0864,0 -13.75525,-2.759497 -18.76585,-7.76641 -5.01059,-5.018844 -7.77421,-11.67944 -7.77421,-18.769976 0,-7.086404 2.76317,-13.751129 7.77421,-18.762177 5.0106,-5.019306 11.67945,-7.77008 18.76585,-7.77008 7.09099,0 13.75114,2.750774 18.76586,7.77008 5.01059,5.010589 7.77006,11.675773 7.77006,18.762177 0,7.090536 -2.75902,13.751132 -7.77006,18.769976 z"
         style="fill:#ffffff;fill-opacity:1;stroke:#000000;stroke-width:12.1421;stroke-miterlimit:4;stroke-dasharray:none;stroke-opacity:1"
         id="path869" />
    </g>
  </g>
  <style
     type="text/css"
     id="style871">
	.st0{fill:#374149;}
</style>
  <style
     type="text/css"
     id="style901">
	.st0{fill:#374149;}
</style>
  <style
     type="text/css"
     id="style925">
	.st0{fill:#374149;}
</style>
  <style
     type="text/css"
     id="style1043">
	.st0{fill:#4B4B4B;}
</style>
  <style
     type="text/css"
     id="style867">
	.st0{fill:#4B4B4B;}
</style>
</svg>
