<?xml version="1.0" encoding="UTF-8" standalone="no"?>
<svg
   xmlns:dc="http://purl.org/dc/elements/1.1/"
   xmlns:cc="http://creativecommons.org/ns#"
   xmlns:rdf="http://www.w3.org/1999/02/22-rdf-syntax-ns#"
   xmlns:svg="http://www.w3.org/2000/svg"
   xmlns="http://www.w3.org/2000/svg"
   xmlns:xlink="http://www.w3.org/1999/xlink"
   xmlns:sodipodi="http://sodipodi.sourceforge.net/DTD/sodipodi-0.dtd"
   xmlns:inkscape="http://www.inkscape.org/namespaces/inkscape"
   width="100mm"
   height="100mm"
   viewBox="0 0 100 100"
   version="1.1"
   id="svg8"
   inkscape:version="1.0.1 (3bc2e813f5, 2020-09-07)"
   sodipodi:docname="ParamCFishIcon.svg"
   inkscape:export-filename="C:\Users\hiroa\Desktop\ParamCFishIcon.png"
   inkscape:export-xdpi="6.0959997"
   inkscape:export-ydpi="6.0959997">
  <defs
     id="defs2">
    <linearGradient
       inkscape:collect="always"
       id="linearGradient974">
      <stop
         style="stop-color:#4b4b4b;stop-opacity:1;"
         offset="0"
         id="stop970" />
      <stop
         style="stop-color:#4b4b4b;stop-opacity:0;"
         offset="1"
         id="stop972" />
    </linearGradient>
    <rect
       x="23.623512"
       y="86.178572"
       width="23.035423"
       height="17.804464"
       id="rect904" />
    <rect
       x="23.623512"
       y="86.178574"
       width="15.686012"
       height="13.229167"
       id="rect904-4" />
    <rect
       x="23.623512"
       y="86.178574"
       width="15.686012"
       height="13.229167"
       id="rect917" />
    <rect
       x="23.623512"
       y="86.178574"
       width="15.686012"
       height="13.229167"
       id="rect904-4-7" />
    <rect
       x="23.623512"
       y="86.178574"
       width="15.686012"
       height="13.229167"
       id="rect946" />
    <rect
       x="23.623512"
       y="86.178574"
       width="15.686012"
       height="13.229167"
       id="rect904-8" />
    <rect
       x="23.623512"
       y="86.178574"
       width="15.686012"
       height="13.229167"
       id="rect976" />
    <rect
       x="23.623512"
       y="86.178574"
       width="24.207069"
       height="17.041914"
       id="rect904-9" />
    <rect
       x="23.623512"
       y="86.178574"
       width="15.686012"
       height="13.229167"
       id="rect1005" />
    <rect
       x="23.623512"
       y="86.178574"
       width="15.686012"
       height="13.229167"
       id="rect904-9-7" />
    <rect
       x="23.623512"
       y="86.178574"
       width="15.686012"
       height="13.229167"
       id="rect1034" />
    <rect
       x="23.623512"
       y="86.178574"
       width="17.496736"
       height="14.209588"
       id="rect904-94" />
    <rect
       x="23.623512"
       y="86.178574"
       width="15.686012"
       height="13.229167"
       id="rect1064" />
    <rect
       x="23.623512"
       y="86.178574"
       width="15.686012"
       height="13.229167"
       id="rect904-94-2" />
    <rect
       x="23.623512"
       y="86.178574"
       width="15.686012"
       height="13.229167"
       id="rect1093" />
    <rect
       x="23.623512"
       y="86.178574"
       width="15.686012"
       height="13.229167"
       id="rect904-94-2-3" />
    <rect
       x="23.623512"
       y="86.178574"
       width="15.686012"
       height="13.229167"
       id="rect1122" />
    <rect
       x="23.623512"
       y="86.178574"
       width="15.686012"
       height="13.229167"
       id="rect904-94-2-6" />
    <rect
       x="23.623512"
       y="86.178574"
       width="15.686012"
       height="13.229167"
       id="rect1102" />
    <radialGradient
       inkscape:collect="always"
       xlink:href="#linearGradient974"
       id="radialGradient978"
       cx="255.9995"
       cy="256.00085"
       fx="255.9995"
       fy="256.00085"
       r="255.9995"
       gradientTransform="matrix(1,0,0,0.81940108,0,46.233476)"
       gradientUnits="userSpaceOnUse" />
  </defs>
  <sodipodi:namedview
     id="base"
     pagecolor="#ffffff"
     bordercolor="#666666"
     borderopacity="1.0"
     inkscape:pageopacity="0.0"
     inkscape:pageshadow="2"
     inkscape:zoom="1.9627841"
     inkscape:cx="111.95498"
     inkscape:cy="113.31689"
     inkscape:document-units="mm"
     inkscape:current-layer="g1047"
     inkscape:document-rotation="0"
     showgrid="false"
     inkscape:window-width="1662"
     inkscape:window-height="1041"
     inkscape:window-x="200"
     inkscape:window-y="0"
     inkscape:window-maximized="0" />
  <metadata
     id="metadata5">
    <rdf:RDF>
      <cc:Work
         rdf:about="">
        <dc:format>image/svg+xml</dc:format>
        <dc:type
           rdf:resource="http://purl.org/dc/dcmitype/StillImage" />
        <dc:title />
      </cc:Work>
    </rdf:RDF>
  </metadata>
  <g
     inkscape:groupmode="layer"
     id="layer2"
     inkscape:label="レイヤー 2"
     style="display:inline">
    <path
       sodipodi:type="star"
       style="fill:#000000;fill-opacity:1;stroke-width:0.752772;stroke-linecap:round;stroke-linejoin:round"
       id="path889"
       sodipodi:sides="6"
       sodipodi:cx="50.118706"
       sodipodi:cy="49.685371"
       sodipodi:r1="49.569305"
       sodipodi:r2="42.928276"
       sodipodi:arg1="1.0471976"
       sodipodi:arg2="1.5707963"
       inkscape:flatsided="true"
       inkscape:rounded="-3.46945e-18"
       inkscape:randomized="0"
       d="m 74.903356,92.61365 -49.569305,-2e-6 L 0.54940033,49.685369 25.334055,6.7570924 l 49.569306,2.5e-6 24.78465,42.9282791 z"
       transform="matrix(1,0,0,0.88453913,0,5.7367161)" />
    <path
       style="fill:#ffffff;fill-opacity:1;stroke:#ffffff;stroke-width:2.08949;stroke-linecap:round;stroke-linejoin:round;stroke-opacity:1"
       d=""
       id="path987"
       transform="scale(0.26458333)" />
    <path
       style="fill:#ffffff;fill-opacity:1;stroke:#ffffff;stroke-width:2.08949;stroke-linecap:round;stroke-linejoin:round;stroke-opacity:1"
       d=""
       id="path991"
       transform="scale(0.26458333)" />
  </g>
  <g
     inkscape:label="レイヤー 1"
     inkscape:groupmode="layer"
     id="layer1"
     style="display:inline">
    <text
       xml:space="preserve"
       id="text902-5"
       style="font-style:normal;font-variant:normal;font-weight:normal;font-stretch:normal;font-size:12.8687px;line-height:1.25;font-family:sans-serif;-inkscape-font-specification:'sans-serif, Normal';font-variant-ligatures:normal;font-variant-caps:normal;font-variant-numeric:normal;font-variant-east-asian:normal;white-space:pre;shape-inside:url(#rect904-9);fill:#000000;fill-opacity:1;stroke:none;"
       transform="matrix(1.7743161,0,0,1.7348602,-42.572745,-91.778884)" />
    <g
       style="opacity:1"
       id="g953"
       transform="matrix(0.26458333,0,0,0.26458333,69.202537,112.93737)">
      <g
         id="g937" />
    </g>
    <g
       style="opacity:1"
       id="g1059"
       transform="matrix(0.14171206,0,0,0.14171206,12.163673,11.700835)">
      <g
         id="g1047">
	<path
   class="st0"
   d="m 515.6804,271.61732 c -0.055,-42.822 1.55307,-87.06432 -1.40293,-88.53732 -36.906,6.688 -55.308,54.699 -62.674,70.217 -1.613,3.398 -6.644,3.697 -16.246,-2.196 -6.07,-3.723 -56.638,-35.067 -117.067,-57.084 3.145,-8.144 8.876,-20.363 18.754,-33.984 -26.251,0.831 -45.629,14.778 -54.464,22.586 -10.629,-2.883 -21.348,-5.296 -32,-7.059 -40.667,-26.382 -54.31,-48.878 -55.345,-53.018 -30.739,13.223 -47.504,45.218 -53.131,57.907 -86.73,19.297 -134.6470001,67.137 -139.4140001,81.507 L 2.5748594,279.30788 7.8914699,290.01 c 0,0 33.7710001,56.48 140.8280001,72.414 28.154,24.538 52.367,27.033 52.367,27.033 l -3.86,-23.03 c 3.561,0.082 7.163,0.135 10.85,0.135 28.443,-0.036 57.578,-5.531 85.113,-13.557 28.606,13.223 76.458,13.376 70.674,8.568 -10.412,-5.396 -18.65,-13.983 -25.176,-24.422 51.952,-20.86 91.164,-45.516 96.708,-47.649 9.599,-5.93 14.624,-5.64 16.246,-2.233 7.402,15.492 25.917,63.467 62.842,70.056 2.957,-1.481 1.24593,-42.87568 1.19693,-85.70768 z"
   style="fill:#ffffff"
   id="path1045"
   sodipodi:nodetypes="ccsccccccccccccccccccccc"
   inkscape:export-filename="C:\Users\hiroa\Desktop\path1045.png"
   inkscape:export-xdpi="6.0959997"
   inkscape:export-ydpi="6.0959997" />

</g>
    </g>
  </g>
  <style
     type="text/css"
     id="style871">
	.st0{fill:#374149;}
</style>
  <style
     type="text/css"
     id="style901">
	.st0{fill:#374149;}
</style>
  <style
     type="text/css"
     id="style925">
	.st0{fill:#374149;}
</style>
  <style
     type="text/css"
     id="style1043">
	.st0{fill:#4B4B4B;}
</style>
</svg>
